<?xml version="1.0" encoding="UTF-8" standalone="no"?>
<!-- Created with Inkscape (http://www.inkscape.org/) -->

<svg
   xmlns:dc="http://purl.org/dc/elements/1.1/"
   xmlns:cc="http://creativecommons.org/ns#"
   xmlns:rdf="http://www.w3.org/1999/02/22-rdf-syntax-ns#"
   xmlns:svg="http://www.w3.org/2000/svg"
   xmlns="http://www.w3.org/2000/svg"
   xmlns:sodipodi="http://sodipodi.sourceforge.net/DTD/sodipodi-0.dtd"
   xmlns:inkscape="http://www.inkscape.org/namespaces/inkscape"
   width="744.09448819"
   height="1052.3622047"
   id="svg2"
   version="1.1"
   inkscape:version="0.47 r22583"
   sodipodi:docname="vimwiki_logo.svg"
   inkscape:export-filename="C:\Documents and Settings\haba\work\habamax.ru\images\vimwiki_logo.png"
   inkscape:export-xdpi="40.111965"
   inkscape:export-ydpi="40.111965">
  <defs
     id="defs4">
    <inkscape:path-effect
       effect="sketch"
       id="path-effect4965"
       is_visible="true"
       nbiter_approxstrokes="5"
       strokelength="100"
       strokelength_rdm="0.6;261224424"
       strokeoverlap="0.1"
       strokeoverlap_rdm="0.8;-497725171"
       ends_tolerance="0.1;231685163"
       parallel_offset="5;1981943467"
       tremble_size="5;1720361794"
       tremble_frequency="1"
       nbtangents="5"
       tgt_places_rdmness="1;-2057372677"
       tgtscale="10"
       tgtlength="50"
       tgtlength_rdm="0.3;-1549304887" />
    <inkscape:path-effect
       effect="ruler"
       id="path-effect4963"
       is_visible="true"
       unit="px"
       mark_distance="20"
       mark_length="14"
       minor_mark_length="7"
       major_mark_steps="5"
       shift="0"
       offset="0"
       mark_dir="left"
       border_marks="both" />
    <inkscape:path-effect
       effect="knot"
       id="path-effect4961"
       is_visible="true"
       interruption_width="3"
       prop_to_stroke_width="true"
       add_stroke_width="true"
       add_other_stroke_width="true"
       switcher_size="15"
       crossing_points_vector="186.4657 | 496.61963 | 0 | 0 | 0 | 0 | 8.0000038 | 11.000004 | 1 | 186.46551 | 496.61963 | 0 | 0 | 0 | 0 | 8.0000114 | 11.000004 | 1 | 186.4657 | 496.61963 | 0 | 0 | 0 | 0 | 8.0000038 | 11.000011 | 1 | 186.46551 | 496.61963 | 0 | 0 | 0 | 0 | 8.0000114 | 11.000011 | 1 | 186.46533 | 496.61963 | 0 | 0 | 0 | 0 | 8.0000191 | 11.000004 | 1 | 186.46514 | 496.61963 | 0 | 0 | 0 | 0 | 8.0000267 | 11.000004 | 1 | 186.46533 | 496.61963 | 0 | 0 | 0 | 0 | 8.0000191 | 11.000011 | 1 | 186.46514 | 496.61963 | 0 | 0 | 0 | 0 | 8.0000267 | 11.000011 | 1 | 186.4657 | 496.61963 | 0 | 0 | 0 | 0 | 8.0000038 | 11.000019 | 1 | 186.4657 | 496.61963 | 0 | 0 | 0 | 0 | 8.0000038 | 11.000027 | 1 | 186.46551 | 496.61963 | 0 | 0 | 0 | 0 | 8.0000114 | 11.000019 | 1 | 186.46551 | 496.61963 | 0 | 0 | 0 | 0 | 8.0000114 | 11.000027 | 1 | 186.46533 | 496.61963 | 0 | 0 | 0 | 0 | 8.0000191 | 11.000019 | 1 | 186.46514 | 496.61963 | 0 | 0 | 0 | 0 | 8.0000267 | 11.000019 | 1 | 186.46533 | 496.61963 | 0 | 0 | 0 | 0 | 8.0000191 | 11.000027 | 1 | 186.46514 | 496.61963 | 0 | 0 | 0 | 0 | 8.0000267 | 11.000027 | 1 | 186.46496 | 496.61963 | 0 | 0 | 0 | 0 | 8.0000343 | 11.000004 | 1 | 186.46477 | 496.61963 | 0 | 0 | 0 | 0 | 8.000042 | 11.000004 | 1 | 186.46496 | 496.61963 | 0 | 0 | 0 | 0 | 8.0000343 | 11.000011 | 1 | 186.46477 | 496.61963 | 0 | 0 | 0 | 0 | 8.000042 | 11.000011 | 1 | 186.46459 | 496.61963 | 0 | 0 | 0 | 0 | 8.0000496 | 11.000004 | 1 | 186.46441 | 496.61963 | 0 | 0 | 0 | 0 | 8.0000572 | 11.000004 | 1 | 186.46459 | 496.61963 | 0 | 0 | 0 | 0 | 8.0000496 | 11.000011 | 1 | 186.46441 | 496.61963 | 0 | 0 | 0 | 0 | 8.0000572 | 11.000011 | 1 | 186.46496 | 496.61963 | 0 | 0 | 0 | 0 | 8.0000343 | 11.000019 | 1 | 186.46477 | 496.61963 | 0 | 0 | 0 | 0 | 8.000042 | 11.000019 | 1 | 186.46496 | 496.61963 | 0 | 0 | 0 | 0 | 8.0000343 | 11.000027 | 1 | 186.46477 | 496.61963 | 0 | 0 | 0 | 0 | 8.000042 | 11.000027 | 1 | 186.46459 | 496.61963 | 0 | 0 | 0 | 0 | 8.0000496 | 11.000019 | 1 | 186.46441 | 496.61963 | 0 | 0 | 0 | 0 | 8.0000572 | 11.000019 | 1 | 186.46459 | 496.61963 | 0 | 0 | 0 | 0 | 8.0000496 | 11.000027 | 1 | 186.46441 | 496.61963 | 0 | 0 | 0 | 0 | 8.0000572 | 11.000027 | 1 | 186.4657 | 496.61963 | 0 | 0 | 0 | 0 | 8.0000038 | 11.000034 | 1 | 186.4657 | 496.61963 | 0 | 0 | 0 | 0 | 8.0000038 | 11.000042 | 1 | 186.4657 | 496.61963 | 0 | 3 | 0 | 0 | 8.0000038 | 6.0000038 | 1 | 186.46551 | 496.61963 | 0 | 3 | 0 | 0 | 8.0000114 | 6.0000038 | 1 | 186.4657 | 496.61963 | 0 | 3 | 0 | 0 | 8.0000038 | 6.0000114 | 1 | 186.46551 | 496.61963 | 0 | 3 | 0 | 0 | 8.0000114 | 6.0000114 | 1 | 186.46533 | 496.61963 | 0 | 3 | 0 | 0 | 8.0000191 | 6.0000038 | 1 | 186.46514 | 496.61963 | 0 | 3 | 0 | 0 | 8.0000267 | 6.0000038 | 1 | 186.46533 | 496.61963 | 0 | 3 | 0 | 0 | 8.0000191 | 6.0000114 | 1 | 186.46514 | 496.61963 | 0 | 3 | 0 | 0 | 8.0000267 | 6.0000114 | 1 | 186.4657 | 496.61963 | 0 | 3 | 0 | 0 | 8.0000038 | 6.0000191 | 1 | 186.4657 | 496.61963 | 0 | 3 | 0 | 0 | 8.0000038 | 6.0000267 | 1 | 186.46551 | 496.61963 | 0 | 3 | 0 | 0 | 8.0000114 | 6.0000191 | 1 | 186.46551 | 496.61963 | 0 | 3 | 0 | 0 | 8.0000114 | 6.0000267 | 1 | 186.46533 | 496.61963 | 0 | 3 | 0 | 0 | 8.0000191 | 6.0000191 | 1 | 186.46514 | 496.61963 | 0 | 3 | 0 | 0 | 8.0000267 | 6.0000191 | 1 | 186.46533 | 496.61963 | 0 | 3 | 0 | 0 | 8.0000191 | 6.0000267 | 1 | 186.46514 | 496.61963 | 0 | 3 | 0 | 0 | 8.0000267 | 6.0000267 | 1 | 186.46496 | 496.61963 | 0 | 3 | 0 | 0 | 8.0000343 | 6.0000038 | 1 | 186.46477 | 496.61963 | 0 | 3 | 0 | 0 | 8.000042 | 6.0000038 | 1 | 186.46496 | 496.61963 | 0 | 3 | 0 | 0 | 8.0000343 | 6.0000114 | 1 | 186.46477 | 496.61963 | 0 | 3 | 0 | 0 | 8.000042 | 6.0000114 | 1 | 186.46459 | 496.61963 | 0 | 3 | 0 | 0 | 8.0000496 | 6.0000038 | 1 | 186.46441 | 496.61963 | 0 | 3 | 0 | 0 | 8.0000572 | 6.0000038 | 1 | 186.46459 | 496.61963 | 0 | 3 | 0 | 0 | 8.0000496 | 6.0000114 | 1 | 186.46441 | 496.61963 | 0 | 3 | 0 | 0 | 8.0000572 | 6.0000114 | 1 | 186.46496 | 496.61963 | 0 | 3 | 0 | 0 | 8.0000343 | 6.0000191 | 1 | 186.46477 | 496.61963 | 0 | 3 | 0 | 0 | 8.000042 | 6.0000191 | 1 | 186.46496 | 496.61963 | 0 | 3 | 0 | 0 | 8.0000343 | 6.0000267 | 1 | 186.46477 | 496.61963 | 0 | 3 | 0 | 0 | 8.000042 | 6.0000267 | 1 | 186.46459 | 496.61963 | 0 | 3 | 0 | 0 | 8.0000496 | 6.0000191 | 1 | 186.46441 | 496.61963 | 0 | 3 | 0 | 0 | 8.0000572 | 6.0000191 | 1 | 186.46459 | 496.61963 | 0 | 3 | 0 | 0 | 8.0000496 | 6.0000267 | 1 | 186.46441 | 496.61963 | 0 | 3 | 0 | 0 | 8.0000572 | 6.0000267 | 1 | 186.4657 | 496.61963 | 0 | 3 | 0 | 0 | 8.0000038 | 6.0000343 | 1 | 186.4657 | 496.61963 | 0 | 3 | 0 | 0 | 8.0000038 | 6.000042 | 1 | 186.4657 | 496.61963 | 0 | 4 | 0 | 0 | 8.0000038 | 2.0000038 | 1 | 186.46551 | 496.61963 | 0 | 4 | 0 | 0 | 8.0000114 | 2.0000038 | 1 | 186.4657 | 496.61963 | 0 | 4 | 0 | 0 | 8.0000038 | 2.0000114 | 1 | 186.46551 | 496.61963 | 0 | 4 | 0 | 0 | 8.0000114 | 2.0000114 | 1 | 186.46533 | 496.61963 | 0 | 4 | 0 | 0 | 8.0000191 | 2.0000038 | 1 | 186.46514 | 496.61963 | 0 | 4 | 0 | 0 | 8.0000267 | 2.0000038 | 1 | 186.46533 | 496.61963 | 0 | 4 | 0 | 0 | 8.0000191 | 2.0000114 | 1 | 186.46514 | 496.61963 | 0 | 4 | 0 | 0 | 8.0000267 | 2.0000114 | 1 | 186.4657 | 496.61963 | 0 | 4 | 0 | 0 | 8.0000038 | 2.0000191 | 1 | 186.4657 | 496.61963 | 0 | 4 | 0 | 0 | 8.0000038 | 2.0000267 | 1 | 186.46551 | 496.61963 | 0 | 4 | 0 | 0 | 8.0000114 | 2.0000191 | 1 | 186.46551 | 496.61963 | 0 | 4 | 1 | 0 | 8.0000114 | 2.0000267 | 1 | 186.46533 | 496.61963 | 0 | 4 | 0 | 0 | 8.0000191 | 2.0000191 | 1 | 186.46514 | 496.61963 | 0 | 4 | 0 | 0 | 8.0000267 | 2.0000191 | 1 | 186.46533 | 496.61963 | 0 | 4 | 2 | 0 | 8.0000191 | 2.0000267 | 1 | 186.46514 | 496.61963 | 0 | 4 | 3 | 0 | 8.0000267 | 2.0000267 | 1 | 186.46496 | 496.61963 | 0 | 4 | 0 | 0 | 8.0000343 | 2.0000038 | 1 | 186.46477 | 496.61963 | 0 | 4 | 0 | 0 | 8.000042 | 2.0000038 | 1 | 186.46496 | 496.61963 | 0 | 4 | 0 | 0 | 8.0000343 | 2.0000114 | 1 | 186.46477 | 496.61963 | 0 | 4 | 0 | 0 | 8.000042 | 2.0000114 | 1 | 186.46459 | 496.61963 | 0 | 4 | 0 | 0 | 8.0000496 | 2.0000038 | 1 | 186.46441 | 496.61963 | 0 | 4 | 0 | 0 | 8.0000572 | 2.0000038 | 1 | 186.46459 | 496.61963 | 0 | 4 | 0 | 0 | 8.0000496 | 2.0000114 | 1 | 186.46441 | 496.61963 | 0 | 4 | 0 | 0 | 8.0000572 | 2.0000114 | 1 | 186.46496 | 496.61963 | 0 | 4 | 0 | 0 | 8.0000343 | 2.0000191 | 1 | 186.46477 | 496.61963 | 0 | 4 | 0 | 0 | 8.000042 | 2.0000191 | 1 | 186.46496 | 496.61963 | 0 | 4 | 4 | 0 | 8.0000343 | 2.0000267 | 1 | 186.46477 | 496.61963 | 0 | 4 | 5 | 0 | 8.000042 | 2.0000267 | 1 | 186.46459 | 496.61963 | 0 | 4 | 0 | 0 | 8.0000496 | 2.0000191 | 1 | 186.46441 | 496.61963 | 0 | 4 | 0 | 0 | 8.0000572 | 2.0000191 | 1 | 186.46459 | 496.61963 | 0 | 4 | 6 | 0 | 8.0000496 | 2.0000267 | 1 | 186.46441 | 496.61963 | 0 | 4 | 7 | 0 | 8.0000572 | 2.0000267 | 1 | 186.4657 | 496.61963 | 0 | 4 | 0 | 0 | 8.0000038 | 2.0000343 | 1 | 186.4657 | 496.61963 | 0 | 4 | 0 | 0 | 8.0000038 | 2.000042 | 1 | 108.39948 | 496.61963 | 0 | 3 | 0 | 0 | 11.000004 | 6.0000038 | 1 | 108.39929 | 496.61963 | 0 | 3 | 0 | 0 | 11.000011 | 6.0000038 | 1 | 108.39948 | 496.61963 | 0 | 3 | 0 | 0 | 11.000004 | 6.0000114 | 1 | 108.39929 | 496.61963 | 0 | 3 | 0 | 0 | 11.000011 | 6.0000114 | 1 | 108.39911 | 496.61963 | 0 | 3 | 0 | 0 | 11.000019 | 6.0000038 | 1 | 108.39892 | 496.61963 | 0 | 3 | 0 | 0 | 11.000027 | 6.0000038 | 1 | 108.39911 | 496.61963 | 0 | 3 | 0 | 0 | 11.000019 | 6.0000114 | 1 | 108.39892 | 496.61963 | 0 | 3 | 0 | 0 | 11.000027 | 6.0000114 | 1 | 108.39948 | 496.61963 | 0 | 3 | 0 | 0 | 11.000004 | 6.0000191 | 1 | 108.39948 | 496.61963 | 0 | 3 | 0 | 0 | 11.000004 | 6.0000267 | 1 | 108.39929 | 496.61963 | 0 | 3 | 0 | 0 | 11.000011 | 6.0000191 | 1 | 108.39929 | 496.61963 | 0 | 3 | 0 | 0 | 11.000011 | 6.0000267 | 1 | 108.39911 | 496.61963 | 0 | 3 | 0 | 0 | 11.000019 | 6.0000191 | 1 | 108.39892 | 496.61963 | 0 | 3 | 0 | 0 | 11.000027 | 6.0000191 | 1 | 108.39911 | 496.61963 | 0 | 3 | 0 | 0 | 11.000019 | 6.0000267 | 1 | 108.39892 | 496.61963 | 0 | 3 | 0 | 0 | 11.000027 | 6.0000267 | 1 | 108.39874 | 496.61963 | 0 | 3 | 0 | 0 | 11.000034 | 6.0000038 | 1 | 108.39855 | 496.61963 | 0 | 3 | 0 | 0 | 11.000042 | 6.0000038 | 1 | 108.39874 | 496.61963 | 0 | 3 | 0 | 0 | 11.000034 | 6.0000114 | 1 | 108.39855 | 496.61963 | 0 | 3 | 0 | 0 | 11.000042 | 6.0000114 | 1 | 108.39837 | 496.61963 | 0 | 3 | 0 | 0 | 11.00005 | 6.0000038 | 1 | 108.39819 | 496.61963 | 0 | 3 | 0 | 0 | 11.000057 | 6.0000038 | 1 | 108.39837 | 496.61963 | 0 | 3 | 0 | 0 | 11.00005 | 6.0000114 | 1 | 108.39819 | 496.61963 | 0 | 3 | 0 | 0 | 11.000057 | 6.0000114 | 1 | 108.39874 | 496.61963 | 0 | 3 | 0 | 0 | 11.000034 | 6.0000191 | 1 | 108.39855 | 496.61963 | 0 | 3 | 0 | 0 | 11.000042 | 6.0000191 | 1 | 108.39874 | 496.61963 | 0 | 3 | 0 | 0 | 11.000034 | 6.0000267 | 1 | 108.39855 | 496.61963 | 0 | 3 | 0 | 0 | 11.000042 | 6.0000267 | 1 | 108.39837 | 496.61963 | 0 | 3 | 0 | 0 | 11.00005 | 6.0000191 | 1 | 108.39819 | 496.61963 | 0 | 3 | 0 | 0 | 11.000057 | 6.0000191 | 1 | 108.39837 | 496.61963 | 0 | 3 | 0 | 0 | 11.00005 | 6.0000267 | 1 | 108.39819 | 496.61963 | 0 | 3 | 0 | 0 | 11.000057 | 6.0000267 | 1 | 108.39948 | 496.61963 | 0 | 3 | 0 | 0 | 11.000004 | 6.0000343 | 1 | 108.39948 | 496.61963 | 0 | 3 | 0 | 0 | 11.000004 | 6.000042 | 1 | 108.39948 | 496.61963 | 0 | 4 | 0 | 0 | 11.000004 | 2.0000038 | 1 | 108.39929 | 496.61963 | 0 | 4 | 0 | 0 | 11.000011 | 2.0000038 | 1 | 108.39948 | 496.61963 | 0 | 4 | 0 | 0 | 11.000004 | 2.0000114 | 1 | 108.39929 | 496.61963 | 0 | 4 | 0 | 0 | 11.000011 | 2.0000114 | 1 | 108.39911 | 496.61963 | 0 | 4 | 0 | 0 | 11.000019 | 2.0000038 | 1 | 108.39892 | 496.61963 | 0 | 4 | 0 | 0 | 11.000027 | 2.0000038 | 1 | 108.39911 | 496.61963 | 0 | 4 | 0 | 0 | 11.000019 | 2.0000114 | 1 | 108.39892 | 496.61963 | 0 | 4 | 0 | 0 | 11.000027 | 2.0000114 | 1 | 108.39948 | 496.61963 | 0 | 4 | 0 | 0 | 11.000004 | 2.0000191 | 1 | 108.39948 | 496.61963 | 0 | 4 | 0 | 0 | 11.000004 | 2.0000267 | 1 | 108.39929 | 496.61963 | 0 | 4 | 0 | 0 | 11.000011 | 2.0000191 | 1 | 108.39929 | 496.61963 | 0 | 4 | 9 | 0 | 11.000011 | 2.0000267 | 1 | 108.39911 | 496.61963 | 0 | 4 | 0 | 0 | 11.000019 | 2.0000191 | 1 | 108.39892 | 496.61963 | 0 | 4 | 0 | 0 | 11.000027 | 2.0000191 | 1 | 108.39911 | 496.61963 | 0 | 4 | 10 | 0 | 11.000019 | 2.0000267 | 1 | 108.39892 | 496.61963 | 0 | 4 | 11 | 0 | 11.000027 | 2.0000267 | 1 | 108.39874 | 496.61963 | 0 | 4 | 0 | 0 | 11.000034 | 2.0000038 | 1 | 108.39855 | 496.61963 | 0 | 4 | 0 | 0 | 11.000042 | 2.0000038 | 1 | 108.39874 | 496.61963 | 0 | 4 | 0 | 0 | 11.000034 | 2.0000114 | 1 | 108.39855 | 496.61963 | 0 | 4 | 0 | 0 | 11.000042 | 2.0000114 | 1 | 108.39837 | 496.61963 | 0 | 4 | 0 | 0 | 11.00005 | 2.0000038 | 1 | 108.39819 | 496.61963 | 0 | 4 | 0 | 0 | 11.000057 | 2.0000038 | 1 | 108.39837 | 496.61963 | 0 | 4 | 0 | 0 | 11.00005 | 2.0000114 | 1 | 108.39819 | 496.61963 | 0 | 4 | 0 | 0 | 11.000057 | 2.0000114 | 1 | 108.39874 | 496.61963 | 0 | 4 | 0 | 0 | 11.000034 | 2.0000191 | 1 | 108.39855 | 496.61963 | 0 | 4 | 0 | 0 | 11.000042 | 2.0000191 | 1 | 108.39874 | 496.61963 | 0 | 4 | 12 | 0 | 11.000034 | 2.0000267 | 1 | 108.39855 | 496.61963 | 0 | 4 | 13 | 0 | 11.000042 | 2.0000267 | 1 | 108.39837 | 496.61963 | 0 | 4 | 0 | 0 | 11.00005 | 2.0000191 | 1 | 108.39819 | 496.61963 | 0 | 4 | 0 | 0 | 11.000057 | 2.0000191 | 1 | 108.39837 | 496.61963 | 0 | 4 | 14 | 0 | 11.00005 | 2.0000267 | 1 | 108.39819 | 496.61963 | 0 | 4 | 15 | 0 | 11.000057 | 2.0000267 | 1 | 108.39948 | 496.61963 | 0 | 4 | 0 | 0 | 11.000004 | 2.0000343 | 1 | 108.39948 | 496.61963 | 0 | 4 | 8 | 0 | 11.000004 | 2.000042 | 1 | 250.36864 | 371.71368 | 1 | 4 | 0 | 0 | 3.8146973e-06 | 3.8146973e-06 | 1 | 250.36879 | 371.71368 | 1 | 4 | 0 | 0 | 1.1444092e-05 | 3.8146973e-06 | 1 | 250.36864 | 371.71368 | 1 | 4 | 0 | 0 | 3.8146973e-06 | 1.1444092e-05 | 1 | 250.36879 | 371.71368 | 1 | 4 | 0 | 0 | 1.1444092e-05 | 1.1444092e-05 | 1 | 250.36895 | 371.71368 | 1 | 4 | 0 | 0 | 1.9073487e-05 | 3.8146973e-06 | 1 | 250.36911 | 371.71368 | 1 | 4 | 0 | 0 | 2.6702881e-05 | 3.8146973e-06 | 1 | 250.36895 | 371.71368 | 1 | 4 | 0 | 0 | 1.9073487e-05 | 1.1444092e-05 | 1 | 250.36911 | 371.71368 | 1 | 4 | 0 | 0 | 2.6702881e-05 | 1.1444092e-05 | 1 | 250.36864 | 371.71368 | 1 | 4 | 0 | 0 | 3.8146973e-06 | 1.9073487e-05 | 1 | 250.36864 | 371.71368 | 1 | 4 | 0 | 0 | 3.8146973e-06 | 2.6702881e-05 | 1 | 250.36879 | 371.71368 | 1 | 4 | 0 | 0 | 1.1444092e-05 | 1.9073487e-05 | 1 | 250.36879 | 371.71368 | 1 | 4 | 1 | 0 | 1.1444092e-05 | 2.6702881e-05 | 1 | 250.36895 | 371.71368 | 1 | 4 | 0 | 0 | 1.9073487e-05 | 1.9073487e-05 | 1 | 250.36911 | 371.71368 | 1 | 4 | 0 | 0 | 2.6702881e-05 | 1.9073487e-05 | 1 | 250.36895 | 371.71368 | 1 | 4 | 2 | 0 | 1.9073487e-05 | 2.6702881e-05 | 1 | 250.36911 | 371.71368 | 1 | 4 | 3 | 0 | 2.6702881e-05 | 2.6702881e-05 | 1 | 250.36926 | 371.71368 | 1 | 4 | 0 | 0 | 3.4332276e-05 | 3.8146973e-06 | 1 | 250.36942 | 371.71368 | 1 | 4 | 0 | 0 | 4.196167e-05 | 3.8146973e-06 | 1 | 250.36926 | 371.71368 | 1 | 4 | 0 | 0 | 3.4332276e-05 | 1.1444092e-05 | 1 | 250.36942 | 371.71368 | 1 | 4 | 0 | 0 | 4.196167e-05 | 1.1444092e-05 | 1 | 250.36958 | 371.71368 | 1 | 4 | 0 | 0 | 4.9591065e-05 | 3.8146973e-06 | 1 | 250.36973 | 371.71368 | 1 | 4 | 0 | 0 | 5.7220459e-05 | 3.8146973e-06 | 1 | 250.36958 | 371.71368 | 1 | 4 | 0 | 0 | 4.9591065e-05 | 1.1444092e-05 | 1 | 250.36973 | 371.71368 | 1 | 4 | 0 | 1 | 5.7220459e-05 | 1.1444092e-05 | 1 | 250.36926 | 371.71368 | 1 | 4 | 0 | 0 | 3.4332276e-05 | 1.9073487e-05 | 1 | 250.36942 | 371.71368 | 1 | 4 | 0 | 0 | 4.196167e-05 | 1.9073487e-05 | 1 | 250.36926 | 371.71368 | 1 | 4 | 4 | 0 | 3.4332276e-05 | 2.6702881e-05 | 1 | 250.36942 | 371.71368 | 1 | 4 | 5 | 0 | 4.196167e-05 | 2.6702881e-05 | 1 | 250.36958 | 371.71368 | 1 | 4 | 0 | 0 | 4.9591065e-05 | 1.9073487e-05 | 1 | 250.36973 | 371.71368 | 1 | 4 | 0 | 2 | 5.7220459e-05 | 1.9073487e-05 | 1 | 250.36958 | 371.71368 | 1 | 4 | 6 | 0 | 4.9591065e-05 | 2.6702881e-05 | 1 | 250.36973 | 371.71368 | 1 | 4 | 7 | 3 | 5.7220459e-05 | 2.6702881e-05 | 1 | 250.36864 | 371.71368 | 1 | 4 | 0 | 4 | 3.8146973e-06 | 3.4332276e-05 | 1 | 250.36864 | 371.71368 | 1 | 4 | 0 | 5 | 3.8146973e-06 | 4.196167e-05 | 1 | 270.88882 | 371.71416 | 1 | 2 | 0 | 0 | 1.0000038 | 1.0000038 | 1 | 270.88882 | 371.71511 | 1 | 2 | 0 | 0 | 1.0000114 | 1.0000038 | 1 | 270.88882 | 371.71416 | 1 | 2 | 0 | 0 | 1.0000038 | 1.0000114 | 1 | 270.88882 | 371.71511 | 1 | 2 | 0 | 0 | 1.0000114 | 1.0000114 | 1 | 270.88882 | 371.71606 | 1 | 2 | 0 | 0 | 1.0000191 | 1.0000038 | 1 | 270.88882 | 371.71702 | 1 | 2 | 0 | 0 | 1.0000267 | 1.0000038 | 1 | 270.88882 | 371.71606 | 1 | 2 | 0 | 0 | 1.0000191 | 1.0000114 | 1 | 270.88882 | 371.71702 | 1 | 2 | 0 | 0 | 1.0000267 | 1.0000114 | 1 | 270.88882 | 371.71416 | 1 | 2 | 0 | 0 | 1.0000038 | 1.0000191 | 1 | 270.88882 | 371.71416 | 1 | 2 | 0 | 0 | 1.0000038 | 1.0000267 | 1 | 270.88882 | 371.71511 | 1 | 2 | 0 | 0 | 1.0000114 | 1.0000191 | 1 | 270.88882 | 371.71511 | 1 | 2 | 9 | 0 | 1.0000114 | 1.0000267 | 1 | 270.88882 | 371.71606 | 1 | 2 | 0 | 0 | 1.0000191 | 1.0000191 | 1 | 270.88882 | 371.71702 | 1 | 2 | 0 | 0 | 1.0000267 | 1.0000191 | 1 | 270.88882 | 371.71606 | 1 | 2 | 10 | 0 | 1.0000191 | 1.0000267 | 1 | 270.88882 | 371.71702 | 1 | 2 | 11 | 0 | 1.0000267 | 1.0000267 | 1 | 270.88882 | 371.71797 | 1 | 2 | 0 | 0 | 1.0000343 | 1.0000038 | 1 | 270.88882 | 371.71892 | 1 | 2 | 0 | 0 | 1.000042 | 1.0000038 | 1 | 270.88882 | 371.71797 | 1 | 2 | 0 | 0 | 1.0000343 | 1.0000114 | 1 | 270.88882 | 371.71892 | 1 | 2 | 0 | 0 | 1.000042 | 1.0000114 | 1 | 270.88882 | 371.71987 | 1 | 2 | 0 | 0 | 1.0000496 | 1.0000038 | 1 | 270.88882 | 371.72083 | 1 | 2 | 0 | 0 | 1.0000572 | 1.0000038 | 1 | 270.88882 | 371.71987 | 1 | 2 | 0 | 0 | 1.0000496 | 1.0000114 | 1 | 270.88882 | 371.72083 | 1 | 2 | 0 | 1 | 1.0000572 | 1.0000114 | 1 | 270.88882 | 371.71797 | 1 | 2 | 0 | 0 | 1.0000343 | 1.0000191 | 1 | 270.88882 | 371.71892 | 1 | 2 | 0 | 0 | 1.000042 | 1.0000191 | 1 | 270.88882 | 371.71797 | 1 | 2 | 12 | 0 | 1.0000343 | 1.0000267 | 1 | 270.88882 | 371.71892 | 1 | 2 | 13 | 0 | 1.000042 | 1.0000267 | 1 | 270.88882 | 371.71987 | 1 | 2 | 0 | 0 | 1.0000496 | 1.0000191 | 1 | 270.88882 | 371.72083 | 1 | 2 | 0 | 2 | 1.0000572 | 1.0000191 | 1 | 270.88882 | 371.71987 | 1 | 2 | 14 | 0 | 1.0000496 | 1.0000267 | 1 | 270.88882 | 371.72083 | 1 | 2 | 15 | 3 | 1.0000572 | 1.0000267 | 1 | 270.88882 | 371.71416 | 1 | 2 | 0 | 4 | 1.0000038 | 1.0000343 | 1 | 270.88882 | 371.71416 | 1 | 2 | 8 | 5 | 1.0000038 | 1.000042 | 1 | 423.7869 | 496.61963 | 3 | 4 | 0 | 0 | 6.0000038 | 2.0000038 | 1 | 423.78655 | 496.61963 | 3 | 4 | 0 | 0 | 6.0000114 | 2.0000038 | 1 | 423.7869 | 496.61963 | 3 | 4 | 0 | 0 | 6.0000038 | 2.0000114 | 1 | 423.78655 | 496.61963 | 3 | 4 | 0 | 0 | 6.0000114 | 2.0000114 | 1 | 423.7862 | 496.61963 | 3 | 4 | 0 | 0 | 6.0000191 | 2.0000038 | 1 | 423.78584 | 496.61963 | 3 | 4 | 0 | 0 | 6.0000267 | 2.0000038 | 1 | 423.7862 | 496.61963 | 3 | 4 | 0 | 0 | 6.0000191 | 2.0000114 | 1 | 423.78584 | 496.61963 | 3 | 4 | 0 | 0 | 6.0000267 | 2.0000114 | 1 | 423.7869 | 496.61963 | 3 | 4 | 0 | 0 | 6.0000038 | 2.0000191 | 1 | 423.7869 | 496.61963 | 3 | 4 | 0 | 0 | 6.0000038 | 2.0000267 | 1 | 423.78655 | 496.61963 | 3 | 4 | 0 | 0 | 6.0000114 | 2.0000191 | 1 | 423.78655 | 496.61963 | 3 | 4 | 1 | 0 | 6.0000114 | 2.0000267 | 1 | 423.7862 | 496.61963 | 3 | 4 | 0 | 0 | 6.0000191 | 2.0000191 | 1 | 423.78584 | 496.61963 | 3 | 4 | 0 | 0 | 6.0000267 | 2.0000191 | 1 | 423.7862 | 496.61963 | 3 | 4 | 2 | 0 | 6.0000191 | 2.0000267 | 1 | 423.78584 | 496.61963 | 3 | 4 | 3 | 0 | 6.0000267 | 2.0000267 | 1 | 423.78549 | 496.61963 | 3 | 4 | 0 | 0 | 6.0000343 | 2.0000038 | 1 | 423.78513 | 496.61963 | 3 | 4 | 0 | 0 | 6.000042 | 2.0000038 | 1 | 423.78549 | 496.61963 | 3 | 4 | 0 | 0 | 6.0000343 | 2.0000114 | 1 | 423.78513 | 496.61963 | 3 | 4 | 0 | 0 | 6.000042 | 2.0000114 | 1 | 423.78478 | 496.61963 | 3 | 4 | 0 | 0 | 6.0000496 | 2.0000038 | 1 | 423.78443 | 496.61963 | 3 | 4 | 0 | 6 | 6.0000572 | 2.0000038 | 1 | 423.78478 | 496.61963 | 3 | 4 | 0 | 0 | 6.0000496 | 2.0000114 | 1 | 423.78443 | 496.61963 | 3 | 4 | 0 | 7 | 6.0000572 | 2.0000114 | 1 | 423.78549 | 496.61963 | 3 | 4 | 0 | 0 | 6.0000343 | 2.0000191 | 1 | 423.78513 | 496.61963 | 3 | 4 | 0 | 0 | 6.000042 | 2.0000191 | 1 | 423.78549 | 496.61963 | 3 | 4 | 4 | 0 | 6.0000343 | 2.0000267 | 1 | 423.78513 | 496.61963 | 3 | 4 | 5 | 0 | 6.000042 | 2.0000267 | 1 | 423.78478 | 496.61963 | 3 | 4 | 0 | 0 | 6.0000496 | 2.0000191 | 1 | 423.78443 | 496.61963 | 3 | 4 | 0 | 8 | 6.0000572 | 2.0000191 | 1 | 423.78478 | 496.61963 | 3 | 4 | 6 | 0 | 6.0000496 | 2.0000267 | 1 | 423.78443 | 496.61963 | 3 | 4 | 7 | 9 | 6.0000572 | 2.0000267 | 1 | 423.7869 | 496.61963 | 3 | 4 | 0 | 10 | 6.0000038 | 2.0000343 | 1 | 423.7869 | 496.61963 | 3 | 4 | 0 | 11 | 6.0000038 | 2.000042 | 1 | 446.20323 | 496.61915 | 4 | 5 | 0 | 0 | 3.0000038 | 3.0000038 | 1 | 446.20323 | 496.6182 | 4 | 5 | 0 | 0 | 3.0000114 | 3.0000038 | 1 | 446.20323 | 496.61915 | 4 | 5 | 0 | 0 | 3.0000038 | 3.0000114 | 1 | 446.20323 | 496.6182 | 4 | 5 | 0 | 0 | 3.0000114 | 3.0000114 | 1 | 446.20323 | 496.61725 | 4 | 5 | 0 | 0 | 3.0000191 | 3.0000038 | 1 | 446.20323 | 496.61629 | 4 | 5 | 0 | 0 | 3.0000267 | 3.0000038 | 1 | 446.20323 | 496.61725 | 4 | 5 | 0 | 0 | 3.0000191 | 3.0000114 | 1 | 446.20323 | 496.61629 | 4 | 5 | 0 | 0 | 3.0000267 | 3.0000114 | 1 | 446.20323 | 496.61915 | 4 | 5 | 0 | 0 | 3.0000038 | 3.0000191 | 1 | 446.20323 | 496.61915 | 4 | 5 | 0 | 0 | 3.0000038 | 3.0000267 | 1 | 446.20323 | 496.6182 | 4 | 5 | 0 | 0 | 3.0000114 | 3.0000191 | 1 | 446.20323 | 496.6182 | 4 | 5 | 13 | 0 | 3.0000114 | 3.0000267 | 1 | 446.20323 | 496.61725 | 4 | 5 | 0 | 0 | 3.0000191 | 3.0000191 | 1 | 446.20323 | 496.61629 | 4 | 5 | 0 | 0 | 3.0000267 | 3.0000191 | 1 | 446.20323 | 496.61725 | 4 | 5 | 14 | 0 | 3.0000191 | 3.0000267 | 1 | 446.20323 | 496.61629 | 4 | 5 | 15 | 0 | 3.0000267 | 3.0000267 | 1 | 446.20323 | 496.61534 | 4 | 5 | 0 | 0 | 3.0000343 | 3.0000038 | 1 | 446.20323 | 496.61439 | 4 | 5 | 0 | 0 | 3.000042 | 3.0000038 | 1 | 446.20323 | 496.61534 | 4 | 5 | 0 | 0 | 3.0000343 | 3.0000114 | 1 | 446.20323 | 496.61439 | 4 | 5 | 0 | 0 | 3.000042 | 3.0000114 | 1 | 446.20323 | 496.61344 | 4 | 5 | 0 | 0 | 3.0000496 | 3.0000038 | 1 | 446.20323 | 496.61248 | 4 | 5 | 0 | 0 | 3.0000572 | 3.0000038 | 1 | 446.20323 | 496.61344 | 4 | 5 | 0 | 0 | 3.0000496 | 3.0000114 | 1 | 446.20323 | 496.61248 | 4 | 5 | 0 | 1 | 3.0000572 | 3.0000114 | 1 | 446.20323 | 496.61534 | 4 | 5 | 0 | 0 | 3.0000343 | 3.0000191 | 1 | 446.20323 | 496.61439 | 4 | 5 | 0 | 0 | 3.000042 | 3.0000191 | 1 | 446.20323 | 496.61534 | 4 | 5 | 16 | 0 | 3.0000343 | 3.0000267 | 1 | 446.20323 | 496.61439 | 4 | 5 | 17 | 0 | 3.000042 | 3.0000267 | 1 | 446.20323 | 496.61344 | 4 | 5 | 0 | 0 | 3.0000496 | 3.0000191 | 1 | 446.20323 | 496.61248 | 4 | 5 | 0 | 2 | 3.0000572 | 3.0000191 | 1 | 446.20323 | 496.61344 | 4 | 5 | 18 | 0 | 3.0000496 | 3.0000267 | 1 | 446.20323 | 496.61248 | 4 | 5 | 19 | 3 | 3.0000572 | 3.0000267 | 1 | 446.20323 | 496.61915 | 4 | 5 | 0 | 4 | 3.0000038 | 3.0000343 | 1 | 446.20323 | 496.61915 | 4 | 5 | 12 | 5 | 3.0000038 | 3.000042 | 1" />
    <inkscape:path-effect
       effect="envelope"
       id="path-effect4959"
       is_visible="true"
       yy="true"
       xx="true"
       bendpath1="m 40.077696,323.08958 446.265894,0"
       bendpath2="m 486.34359,323.08958 0,174.66657"
       bendpath3="m 40.077696,497.75615 446.265894,0"
       bendpath4="m 40.077696,323.08958 0,174.66657" />
    <inkscape:path-effect
       effect="construct_grid"
       id="path-effect4955"
       is_visible="true"
       nr_x="5"
       nr_y="5" />
    <inkscape:path-effect
       effect="envelope"
       id="path-effect4953"
       is_visible="true"
       yy="true"
       xx="true"
       bendpath1="M 0.83749491,331.0452 499.42366,354.91205"
       bendpath2="M 550.10892,312.86093 486.34359,497.75615"
       bendpath3="m 40.077696,497.75615 446.265894,0"
       bendpath4="M 40.077696,323.08958 4.1075117,497.75615"
       bendpath1-nodetypes="cc"
       bendpath2-nodetypes="cc"
       bendpath4-nodetypes="cc" />
    <inkscape:path-effect
       effect="rough_hatches"
       id="path-effect4951"
       is_visible="true"
       direction="263.21064,405.42287 , 111.56647,0"
       dist_rdm="75;1"
       growth="0"
       do_bend="true"
       bender="263.21064,410.42287 , 5,0"
       bottom_edge_variation="17.466657;1"
       top_edge_variation="17.466657;1"
       bottom_tgt_variation="0;1"
       top_tgt_variation="0;1"
       scale_bf="1"
       scale_bb="1"
       scale_tf="1"
       scale_tb="1"
       top_smth_variation="0;1"
       bottom_smth_variation="0;1"
       fat_output="true"
       stroke_width_top="1"
       stroke_width_bottom="1"
       front_thickness="1"
       back_thickness="0.25" />
    <inkscape:path-effect
       effect="gears"
       id="path-effect4949"
       is_visible="true"
       teeth="10"
       phi="5" />
    <inkscape:path-effect
       effect="skeletal"
       id="path-effect4947"
       is_visible="true"
       pattern="M 0,0 1,0"
       copytype="single_stretched"
       prop_scale="1"
       scale_y_rel="false"
       spacing="0"
       normal_offset="0"
       tang_offset="0"
       prop_units="false"
       vertical_pattern="false"
       fuse_tolerance="0" />
    <inkscape:path-effect
       effect="curvestitching"
       id="path-effect4945"
       is_visible="true"
       count="5"
       startpoint_edge_variation="0;1"
       startpoint_spacing_variation="0;1"
       endpoint_edge_variation="0;1"
       endpoint_spacing_variation="0;1"
       strokepath="M 0,0 1,0"
       prop_scale="1"
       scale_y_rel="false" />
    <inkscape:path-effect
       effect="vonkoch"
       id="path-effect4943"
       is_visible="true"
       ref_path="m 40.077696,410.42286 446.265894,0"
       generator="m 40.077696,497.75615 148.755294,0 m 148.7553,0 148.7553,0"
       similar_only="false"
       nbgenerations="1"
       drawall="true"
       maxComplexity="1000" />
    <inkscape:path-effect
       effect="spiro"
       id="path-effect4941"
       is_visible="true" />
    <inkscape:path-effect
       effect="sketch"
       id="path-effect4939"
       is_visible="true"
       nbiter_approxstrokes="5"
       strokelength="100"
       strokelength_rdm="0.3;1"
       strokeoverlap="0.3"
       strokeoverlap_rdm="0.3;1"
       ends_tolerance="0.1;1"
       parallel_offset="5;1"
       tremble_size="5;1"
       tremble_frequency="1"
       nbtangents="5"
       tgt_places_rdmness="1;1"
       tgtscale="10"
       tgtlength="100"
       tgtlength_rdm="0.3;1" />
    <inkscape:path-effect
       effect="bend_path"
       id="path-effect4935"
       is_visible="true"
       bendpath="m 40.077696,425.64278 187.239414,0"
       prop_scale="1"
       scale_y_rel="false"
       vertical="false" />
    <marker
       inkscape:stockid="Arrow2Lstart"
       orient="auto"
       refY="0.0"
       refX="0.0"
       id="Arrow2Lstart"
       style="overflow:visible">
      <path
         id="path3760"
         style="font-size:12.0;fill-rule:evenodd;stroke-width:0.62500000;stroke-linejoin:round"
         d="M 8.7185878,4.0337352 L -2.2072895,0.016013256 L 8.7185884,-4.0017078 C 6.9730900,-1.6296469 6.9831476,1.6157441 8.7185878,4.0337352 z "
         transform="scale(1.1) translate(1,0)" />
    </marker>
    <inkscape:perspective
       sodipodi:type="inkscape:persp3d"
       inkscape:vp_x="0 : 526.18109 : 1"
       inkscape:vp_y="0 : 1000 : 0"
       inkscape:vp_z="744.09448 : 526.18109 : 1"
       inkscape:persp3d-origin="372.04724 : 350.78739 : 1"
       id="perspective10" />
    <inkscape:perspective
       id="perspective2838"
       inkscape:persp3d-origin="0.5 : 0.33333333 : 1"
       inkscape:vp_z="1 : 0.5 : 1"
       inkscape:vp_y="0 : 1000 : 0"
       inkscape:vp_x="0 : 0.5 : 1"
       sodipodi:type="inkscape:persp3d" />
    <inkscape:perspective
       id="perspective4705"
       inkscape:persp3d-origin="0.5 : 0.33333333 : 1"
       inkscape:vp_z="1 : 0.5 : 1"
       inkscape:vp_y="0 : 1000 : 0"
       inkscape:vp_x="0 : 0.5 : 1"
       sodipodi:type="inkscape:persp3d" />
    <inkscape:perspective
       id="perspective4986"
       inkscape:persp3d-origin="0.5 : 0.33333333 : 1"
       inkscape:vp_z="1 : 0.5 : 1"
       inkscape:vp_y="0 : 1000 : 0"
       inkscape:vp_x="0 : 0.5 : 1"
       sodipodi:type="inkscape:persp3d" />
  </defs>
  <sodipodi:namedview
     id="base"
     pagecolor="#ffffff"
     bordercolor="#666666"
     borderopacity="1.0"
     inkscape:pageopacity="0.0"
     inkscape:pageshadow="2"
     inkscape:zoom="0.70710678"
     inkscape:cx="387.1316"
     inkscape:cy="836.93334"
     inkscape:document-units="px"
     inkscape:current-layer="layer1"
     showgrid="false"
     inkscape:snap-bbox="true"
     inkscape:snap-global="true"
     inkscape:window-width="1540"
     inkscape:window-height="1031"
     inkscape:window-x="-4"
     inkscape:window-y="-4"
     inkscape:window-maximized="1" />
  <metadata
     id="metadata7">
    <rdf:RDF>
      <cc:Work
         rdf:about="">
        <dc:format>image/svg+xml</dc:format>
        <dc:type
           rdf:resource="http://purl.org/dc/dcmitype/StillImage" />
        <dc:title></dc:title>
      </cc:Work>
    </rdf:RDF>
  </metadata>
  <g
     inkscape:label="Layer 1"
     inkscape:groupmode="layer"
     id="layer1">
    <g
       id="g5048"
       inkscape:export-filename="C:\Documents and Settings\haba\work\habamax.ru\images\vimwiki_logo.png"
       inkscape:export-xdpi="40"
       inkscape:export-ydpi="40">
      <rect
         ry="4"
         y="58.362183"
         x="84"
         height="612"
         width="504"
         id="rect4994"
         style="color:#000000;fill:#b8c0a8;fill-opacity:1;fill-rule:nonzero;stroke:#a4bcb8;stroke-width:4;stroke-linecap:round;stroke-linejoin:round;stroke-miterlimit:4;stroke-opacity:1;stroke-dasharray:none;marker:none;visibility:visible;display:inline;overflow:visible;enable-background:accumulate" />
      <g
         transform="translate(-13.715729,9.7573593)"
         id="g4996">
        <path
           sodipodi:type="star"
           style="color:#000000;fill:#a0bcb8;fill-opacity:1;fill-rule:nonzero;stroke:none;stroke-width:1.09868336;marker:none;visibility:visible;display:inline;overflow:visible;enable-background:accumulate"
           id="path2965"
           sodipodi:sides="4"
           sodipodi:cx="192.20605"
           sodipodi:cy="560.26019"
           sodipodi:r1="133.59003"
           sodipodi:r2="94.46241"
           sodipodi:arg1="1.5707963"
           sodipodi:arg2="2.3561945"
           inkscape:flatsided="true"
           inkscape:rounded="0"
           inkscape:randomized="0"
           d="M 192.20606,693.85022 58.616028,560.2602 192.20605,426.67017 325.79608,560.26019 192.20606,693.85022 z"
           transform="matrix(0.87446605,0,0,0.87446605,126.82037,-279.78801)" />
        <path
           id="path2921"
           style="fill:#000000"
           d="m 182.64257,204.61277 c 7.69509,-16.38786 27.74374,-25.92749 29.76552,-45.25227 0.21477,-13.0446 -17.23409,-17.95027 -14.92202,-32.25332 -2.43101,-13.00325 7.86412,-22.83825 20.78052,-20.98221 19.04284,-2.16771 38.73707,1.3861 57.34825,-3.89771 2.88745,-2.33795 16.59604,-14.65674 11.81692,-3.86634 -7.18436,12.44977 -23.32411,10.17587 -35.48845,10.81866 -14.86792,0.38748 -30.24931,-0.82823 -44.61307,3.66964 -10.51808,8.16185 -5.98866,25.57096 4.74635,31.54038 7.80062,12.4027 4.37813,29.81676 -6.05435,39.77358 -7.09826,7.02207 -14.41496,17.33934 -23.37967,20.44959 z m 41.92118,97.41504 c -5.07203,-9.57204 -3.19645,-21.59813 -4.201,-32.26276 -1.30899,-38.87913 0.79341,-77.85262 -1.73513,-116.68327 1.55921,-12.68589 -17.27649,-14.80047 -12.84732,-28.17255 1.34362,-2.91078 -1.11938,-10.07051 3.04284,-9.83515 25.43114,0 50.86229,0 76.29343,0 1.16164,9.1797 3.08776,20.15508 -5.01866,26.89875 -5.88438,12.46626 -3.78622,26.84607 -4.29716,40.27101 0,7.51092 0,15.02184 0,22.53276 17.14561,-18.26707 35.23822,-35.69284 51.33351,-54.90658 10.77994,-9.66819 -12.31374,-23.28526 2.00772,-33.08206 15.17151,-3.67263 31.1128,-2.42216 46.63574,-3.12667 10.59063,-0.58335 29.5637,0.267 26.41249,15.74777 -11.40559,17.82822 -26.91265,32.65212 -41.06284,48.29686 -17.51641,17.97374 -34.56667,36.66477 -54.38834,52.1474 -13.72371,1.63929 -8.46993,18.19433 -17.74598,25.39331 -13.05466,16.11231 -27.17577,31.74945 -43.74522,44.30984 -6.02396,4.34707 -13.81409,5.95553 -20.68408,2.47134 z m 81.04761,16.26653 c 5.41396,-9.70387 19.71326,-6.88075 25.0414,-13.55631 -4.32271,-11.76497 5.50204,-20.98443 12.37843,-29.18926 4.06728,-5.71634 3.43147,-2.99524 1.49471,2.0598 -3.11457,9.79152 -6.57585,19.48948 -9.10392,29.45289 6.72399,0.9199 27.23116,5.93006 24.33793,-5.97135 -0.63356,-8.47971 3.24738,-30.27851 14.18123,-26.16871 -0.43458,11.13236 -6.53441,21.25959 -8.70843,32.14006 6.76895,0.87579 26.72899,5.92162 24.49367,-5.75123 -1.16142,-15.25478 10.42292,-29.36061 6.02002,-44.50754 -3.03625,-11.12837 -30.97146,-2.09126 -15.8559,-16.10555 8.66683,-9.50656 17.56251,-18.80172 26.34387,-28.20236 -12.35333,-12.76102 -24.70663,-25.52207 -37.05991,-38.28314 11.58337,-13.50033 24.81732,-25.75816 34.60398,-40.66834 5.93973,-10.87433 -4.0187,-25.7795 -16.62971,-23.8101 -19.74783,-0.47338 -39.97656,-1.8916 -59.36388,2.61981 -9.99883,9.0216 -19.10632,-6.30498 -25.26132,-13.06814 -6.57305,-12.33064 8.26088,1.76577 12.25114,3.926 15.96713,4.88468 33.0438,2.05481 49.49759,2.35077 13.09858,0.3533 27.17977,-1.67595 39.41339,3.99506 9.2292,7.51146 7.52814,22.82556 1.66194,32.0642 -8.25524,11.78054 -19.21194,21.28066 -28.96454,31.77634 11.3299,12.60904 24.25385,24.0575 33.22222,38.55844 -1.93001,10.11531 -12.40199,16.97031 -18.88316,24.78078 -13.53498,10.9221 13.60172,7.81959 9.44787,20.72818 0.18011,18.50145 -2.9953,36.79169 -6.10879,54.96758 -23.57658,0.37826 -47.2569,-1.01531 -70.74214,1.34148 -10.34373,-0.615 -14.64506,14.30356 -23.44611,13.51992 0.77805,-3.55746 3.51219,-6.28095 5.73842,-8.99928 z m -33.49355,-3.86113 c -5.49266,-7.30604 -14.65883,-15.6415 -22.14644,-5.49463 -10.27227,4.18154 -23.58962,5.43367 -33.04659,-1.19606 -6.35388,-14.64004 -3.65652,-31.35354 -4.65937,-46.91721 0.75324,-11.61457 -6.59105,-21.10877 -14.71753,-28.50877 -4.15813,-5.31704 -15.34384,-14.36166 -13.59364,-19.36853 10.67004,7.62873 20.0545,17.3237 27.86675,27.85004 7.12298,13.96412 4.01435,30.33722 5.73196,45.42219 -1.20506,10.70972 4.53942,21.28199 16.25912,21.5536 10.75748,0.74565 17.82494,-8.87981 26.05725,-14.32036 9.72878,10.95592 20.96711,20.78261 28.80372,33.24556 -2.41824,3.80353 -13.80115,-10.06145 -16.55523,-12.26583 z m 45.59096,-34.6427 7.69603,-24.82554 33.23306,-0.13952 c 22.24706,-0.0934 33.79212,1.38835 34.92409,4.4821 0.93002,2.54185 -0.8601,12.20474 -3.97806,21.47304 -3.11797,9.26833 -4.74306,18.42289 -3.61126,20.34344 1.13175,1.92058 -2.15892,3.49195 -7.31266,3.49195 l -9.37044,0 5.42418,-16.1237 c 6.76407,-20.10649 6.88722,-19.04904 -2.21861,-19.04904 -8.06355,0 -20.74466,24.19455 -16.47696,31.4367 1.2109,2.05483 -2.01505,3.73604 -7.16879,3.73604 l -9.37044,0 5.42418,-16.1237 c 6.76408,-20.10649 6.88722,-19.04904 -2.2186,-19.04904 -8.06355,0 -20.74465,24.19455 -16.47697,31.4367 1.21091,2.05483 -1.93754,3.73604 -6.99656,3.73604 l -9.19817,0 7.69598,-24.82555 z m -29.63175,-0.57698 c 5.69917,-18.38418 9.6686,-25.40254 14.36708,-25.40254 6.08785,0 6.04365,1.36732 -0.70949,21.953 -3.9609,12.07413 -6.28687,23.50526 -5.16887,25.40252 1.11806,1.89727 -2.10637,3.44954 -7.16538,3.44954 l -9.19818,0 7.87484,-25.40252 z m 10.0817,-39.08083 c 0,-3.22417 2.51527,-5.86212 5.58948,-5.86212 3.07422,0 5.58949,2.63795 5.58949,5.86212 0,3.22417 -2.51527,5.86214 -5.58949,5.86214 -3.07421,0 -5.58948,-2.63797 -5.58948,-5.86214 z" />
      </g>
      <g
         inkscape:path-effect="#path-effect4965"
         id="text4896"
         style="font-size:228.39944458px;font-style:normal;font-variant:normal;font-weight:normal;font-stretch:normal;fill:#000000;fill-opacity:1;stroke:none;font-family:DejaVu Sans;-inkscape-font-specification:Bitstream Vera Sans"
         transform="matrix(0.84894598,0,0,1.1994221,133.45085,-3.1715729)">
        <path
           inkscape:original-d="m 40.077696,358.07548 49.950414,11.36517 7.665236,99.74428 27.173814,-91.78867 c 4.79682,-23.86685 16.13369,-22.73033 22.56552,-5.68258 l 25.65033,97.47125 -3.89135,-108.83642 58.12545,-5.68258 -40.85132,141.9537 -24.20053,0 -25.24207,-73.96535 -28.62362,73.96535 -24.200527,0 C 59.681877,447.0287 54.784812,404.25686 40.077696,358.07548 z"
           sodipodi:nodetypes="cccccccccccccc"
           id="path4927"
           style="fill:#000000;stroke:none"
           d="m 39.263488,350.51869 c 16.289763,3.83958 32.237602,7.62756 47.904033,11.48005 0.440348,10.20702 0.776153,20.43801 1.021117,30.71924 m -4.418994,-0.0456 c 2.073438,21.72991 4.753015,41.87689 8.579386,61.05967 m -1.908784,3.53192 c 0.348641,4.81145 0.679981,9.62536 0.992575,14.43868 C 97.523974,449.971 103.2175,428.22704 108.37221,406.1751 m 0.95059,8.87829 c 3.47313,-11.60504 7.01738,-23.34966 10.66906,-35.30219 1.33553,-6.23209 3.07328,-10.88842 5.01642,-14.07628 0.97157,-1.59393 1.99483,-2.8214 3.04849,-3.70229 1.05366,-0.88088 2.13772,-1.41515 3.23431,-1.6293 1.0966,-0.21415 2.20604,-0.1088 3.31156,0.2875 1.10551,0.39631 2.20711,1.08352 3.28619,2.03665 2.15816,1.90626 4.22586,4.87685 6.04695,8.72612 0.67721,1.9701 1.3597,3.93006 2.04772,5.87941 m 5.96443,-0.23719 c 4.72256,18.18643 9.14165,36.0012 13.12374,53.14815 m -3.60321,-6.10361 c 4.0347,14.56222 7.89592,28.6358 11.76941,42.44011 m -5.41432,-1.56368 c 0.22137,0.84147 0.44256,1.68142 0.66359,2.5199 -0.723,-23.14607 -1.57384,-47.42139 -2.34848,-72.07175 m 6.68868,2.87788 c -0.88915,-13.20326 -1.53774,-26.52061 -2.1447,-39.80024 17.38748,-1.42283 34.84584,-2.78144 51.93305,-3.73849 m -11.11932,2.347 c 4.24644,-0.51365 8.46028,-0.9828 12.64651,-1.41265 -7.00257,25.17359 -15.11337,51.92477 -23.06258,78.93306 m 12.24008,-8.55356 c -5.22895,16.10132 -10.27763,32.77333 -15.49833,49.57559 m 2.51335,1.26876 c -2.50853,8.10598 -5.00963,16.23673 -7.53876,24.40091 -8.26941,0.10328 -16.56477,0.23751 -24.91764,0.4104 -3.89514,-10.05173 -7.89467,-20.03329 -12.07578,-29.92581 m -0.90683,-0.0424 c -4.90829,-15.00765 -10.24411,-31.22551 -15.63506,-48.03433 -1.65459,4.00791 -3.31334,7.97126 -4.96854,11.90286 m -3.11129,-0.75849 c -7.41973,22.21091 -15.45679,43.69924 -22.81864,65.51207 -0.66976,0.0103 -1.33889,0.0209 -2.00737,0.0318 m 6.93895,1.71292 c -0.17877,0.46476 -0.3579,0.92864 -0.5374,1.39164 -8.17038,0.25375 -16.442637,0.26002 -24.832637,0.0677 -8.005358,-15.24501 -14.686226,-30.64009 -20.813449,-45.94799 m 2.827003,2.22964 c -3.7691,-9.94462 -6.668664,-19.90411 -9.138777,-29.92663 -1.261715,-5.11942 -2.410138,-10.25591 -3.498466,-15.41886 m -0.668914,-5.8186 c -5.405839,-17.30826 -9.94944,-34.85523 -16.279222,-52.47564 2.236097,0.63144 4.469305,1.2695 6.698226,1.91567 m -1.9451,4.01011 c 13.264084,3.02326 26.698707,5.88592 40.245877,8.57643 m 3.079928,1.71479 c 1.221918,0.23067 2.440072,0.46266 3.654665,0.69585 2.068225,17.67051 3.315224,35.61556 4.449633,53.3444 m -4.643616,-2.78827 c 1.308404,16.16549 2.37869,32.15732 3.244474,47.71134 3.782288,-14.82702 7.406345,-29.99279 10.895055,-45.67705 m 4.27372,6.14008 c 5.28287,-17.86579 11.29628,-35.71816 17.89354,-53.04571 1.5668,-5.63411 3.50729,-9.73503 5.60794,-12.47375 0.0358,-0.0466 0.0716,-0.0929 0.10749,-0.13876 m -8.49943,8.03465 c 0.63307,-1.73019 1.33422,-3.21228 2.08401,-4.45064 0.89169,-1.47271 1.85215,-2.60063 2.8528,-3.39549 1.00064,-0.79486 2.04151,-1.25668 3.09752,-1.40121 1.05601,-0.14453 2.12719,0.0282 3.19168,0.49891 1.06449,0.47075 2.12237,1.23948 3.15404,2.28503 2.06332,2.0911 4.02147,5.28994 5.72856,9.41662 3.09778,10.51131 6.42616,20.76339 9.89345,30.83321 m -0.26662,-13.29932 c 4.87192,17.82856 9.49762,36.80333 13.88819,56.28548 m -3.30143,2.7404 c 1.75762,6.05087 3.47724,12.0597 5.17841,18.03775 -0.30729,-22.97202 -0.87615,-46.38031 -0.66336,-69.62345 m 2.52418,2.81503 c -1.08035,-15.58491 -1.34747,-31.12223 -1.13934,-46.6108 12.57531,-1.10191 25.43418,-2.17474 38.42085,-3.21794 m -9.67687,5.39979 c 9.14598,-1.22007 18.11362,-2.12508 26.98823,-2.79076 -5.70026,21.51893 -11.98055,44.52977 -17.51355,67.85385 m -0.16885,-10.61224 c -6.95297,27.03319 -15.95054,51.18307 -26.01164,74.70174 m 9.05649,2.2759 c -0.77544,2.84197 -1.55202,5.64965 -2.3295,8.42547 -8.0411,0.12094 -16.0894,-0.0145 -24.13936,-0.35103 -2.9082,-8.95542 -5.81849,-18.16473 -8.72302,-27.54962 m -2.74692,4.83568 c -6.22698,-16.53647 -11.25418,-33.69644 -15.47268,-51.16233 -4.15789,13.66133 -7.73246,27.10201 -10.96329,40.51655 m -4.68763,-5.87136 c -4.48847,12.01232 -9.07419,23.81995 -13.70467,35.46931 -8.08098,-0.1632 -16.179812,-0.38958 -24.283271,-0.66742 -3.177241,-6.60588 -6.033835,-13.13053 -8.624117,-19.58438 m 0.771955,5.29604 c -3.580402,-9.14387 -6.635518,-17.81498 -9.302829,-26.20226 -2.667311,-8.38727 -4.947575,-16.48845 -6.987217,-24.44647 m -4.151375,-1.79411 c -0.642533,-1.96767 -1.267223,-3.92425 -1.877649,-5.87067 -3.519913,-11.22364 -6.567887,-22.11245 -9.80346,-32.8148 -3.235573,-10.70235 -6.652308,-21.21928 -10.935481,-31.65032 3.033104,1.02901 6.048544,2.07766 9.0421,3.14616 m -5.111563,1.75185 c 14.30302,3.71019 29.529726,6.90085 45.227617,9.75691 1.652613,13.10454 3.675088,25.94643 5.75273,38.65428 m 8.350994,-2.31236 c 2.309916,22.19236 3.284086,43.0627 3.729146,62.97632 0.94907,-4.37903 1.87906,-8.79254 2.79551,-13.23804 m -4.614389,-2.09942 c 8.442189,-25.5533 16.107709,-49.92159 25.059839,-74.79041 m -5.84038,3.51151 c 1.05227,-3.21234 2.08884,-6.40622 3.11328,-9.58412 1.38491,-6.06638 3.09771,-10.49672 5.01278,-13.49321 0.95753,-1.49825 1.9646,-2.63695 3.00232,-3.43659 1.03772,-0.79965 2.10604,-1.26022 3.18612,-1.40023 1.08007,-0.14001 2.17205,0.0406 3.25638,0.52466 1.08433,0.48408 2.16097,1.27169 3.2088,2.34627 2.09567,2.14917 4.0752,5.44666 5.76787,9.75924 1.3159,4.71342 2.63786,9.43908 3.97748,14.16892 m 1.26213,3.26812 c 5.23535,18.98979 9.99398,36.98395 14.61974,54.33566 m 3.8821,-9.04507 c 3.37814,11.39359 6.3414,22.867 9.04251,34.4603 -0.55146,-9.14515 -1.27333,-18.21236 -2.08557,-27.18064 m -2.80768,8.50141 c 0.10666,-28.1394 -1.10459,-57.06923 -1.10033,-85.47065 4.33213,-0.36178 8.69024,-0.71227 13.08223,-1.04735 m -11.94927,-7.35346 c 17.56345,-2.68652 35.37852,-4.19649 52.91033,-5.34784 -4.05807,12.99782 -8.26134,26.17948 -12.80617,39.24478 m 1.43065,-0.56567 c -3.72452,12.64214 -7.0277,25.24754 -9.91182,37.69004 m 6.40704,1.41444 c -5.61812,20.8744 -12.57547,42.29541 -19.88086,62.72172 m -4.67342,-4.14952 c -0.7404,3.08522 -1.48955,6.16848 -2.24322,9.24946 -7.72195,-0.0421 -15.47219,-0.0984 -23.18432,-0.17392 -2.92413,-10.01686 -5.78393,-20.06609 -8.43383,-30.15854 m -1.46943,10.41143 c -5.93966,-15.64032 -10.76787,-32.27647 -14.79269,-49.36332 -0.0834,0.2732 -0.16666,0.54625 -0.24961,0.81916 m 2.4129,-4.26604 c -0.13124,-0.41766 -0.26323,-0.83528 -0.39597,-1.25286 -7.46351,22.22861 -16.76937,44.56082 -26.69931,68.26235 m -0.19124,-4.24177 c -1.71056,4.96482 -3.46386,9.85956 -5.24849,14.69355 -7.933288,0.001 -15.942461,-0.14505 -23.984421,-0.40304 -4.796141,-10.11768 -8.887798,-20.15059 -12.404979,-30.0713 m -4.794146,1.15491 C 59.726118,455.49422 55.589,440.40793 52.190262,425.33534 48.923428,410.8477 46.331027,396.37251 43.700394,381.56394 m 0.741529,13.69141 c -3.341345,-10.57784 -6.188738,-21.46225 -9.077107,-32.66152 3.212465,0.70779 6.46128,1.40777 9.742969,2.10296 m -2.892501,-3.84197 c 14.825628,2.7585 29.610921,5.87022 44.56823,9.01497 1.772303,15.94624 3.748528,31.93163 6.20277,47.54288 m 3.438329,-6.6943 c 2.021162,18.12788 3.079005,37.34205 3.726097,56.90172 2.43599,-9.31907 4.75545,-18.54011 7.04187,-27.77508 m -5.58732,6.27838 c 4.80954,-18.67295 10.48224,-36.90153 16.17393,-54.41241 m 4.36632,-0.98415 c 1.75335,-5.43328 3.3691,-10.81124 4.86271,-16.14759 1.1274,-6.047 2.54529,-10.46714 4.21468,-13.45743 0.83469,-1.49515 1.72967,-2.63174 2.66549,-3.42982 0.93582,-0.79807 1.91245,-1.25759 2.90068,-1.39678 0.69944,-0.0985 1.40437,-0.0365 2.10285,0.17984 m -1.64087,9.20879 c 0.24558,-0.054 0.49181,-0.0922 0.73851,-0.11473 1.10404,-0.10093 2.21801,0.1123 3.32501,0.62565 1.107,0.51335 2.20694,1.32665 3.27826,2.41888 2.14263,2.18446 4.17054,5.4856 5.89063,9.69721 6.54072,22.40368 12.50909,42.77845 19.37151,62.53754 m -2.33105,-1.31109 c 2.73411,10.8041 5.41783,21.71293 7.97267,32.58457 -0.76891,-11.35543 -1.65523,-22.74475 -2.72721,-34.29136 m -0.69215,-3.21199 c -1.20782,-16.79766 -1.89019,-32.61079 -2.48771,-47.96201 m 5.02469,7.73998 c 0.007,-11.66066 -0.10342,-23.26604 -0.17409,-34.83932 2.82648,-0.26585 5.65519,-0.52988 8.48826,-0.79242 m -5.94331,4.27477 c 17.51808,-1.04088 35.73125,-2.51943 54.18943,-3.79718 -3.47192,13.56757 -6.80294,27.25061 -10.18935,41.32753 m -4.41916,-14.14745 c -5.02948,21.66932 -10.15381,43.17924 -13.92064,65.0315 m 0.51045,-9.16598 c -5.19455,17.10906 -10.23909,33.89751 -15.52746,51.00426 -2.55148,0.11711 -5.10812,0.24093 -7.67111,0.37344 m 5.2978,1.35276 c -6.20302,0.20264 -12.39853,0.31568 -18.58871,0.36007 -4.30309,-12.44297 -8.5817,-25.20148 -12.8574,-38.06871 m -0.76324,11.07065 c -4.63042,-13.48803 -8.87802,-26.58453 -12.82288,-39.49219 -2.03366,5.9554 -4.00465,11.94991 -5.92051,17.96441 m -7.22934,-9.00759 c -7.85425,18.7385 -14.50052,38.31891 -20.24285,57.69677 -7.084092,-0.0885 -14.04494,-0.20454 -20.897853,-0.40081 m -0.946152,-1.02151 c -1.293315,-0.018 -2.58678,-0.0328 -3.880283,-0.0446 C 75.223038,481.5535 70.551331,469.793 66.732321,458.47158 62.91331,447.15015 59.943303,436.27283 57.437127,425.6039 c -0.582996,-2.48185 -1.14089,-4.95221 -1.678471,-7.41375 m -2.366254,-3.08033 c -3.402273,-15.02747 -6.224525,-28.94599 -9.134885,-42.49084 m 3.76832,9.17228 c -2.66257,-8.37311 -5.223967,-16.78225 -7.941689,-25.29555 4.748693,1.08504 9.550249,2.17357 14.388982,3.26469 m -4.314658,-0.63749 c 13.442881,3.71205 27.163497,6.8288 41.060102,9.67587 0.769245,7.85914 1.596559,15.62929 2.462659,23.37218 m -2.350545,0.23658 c 1.902902,25.90276 5.080339,52.15041 9.133252,76.0185 0.38113,-1.16099 0.7636,-2.32564 1.1474,-3.49411 m 0.22095,0.20912 c 0.0338,0.66857 0.0681,1.33865 0.10281,2.01022 6.54546,-24.79111 13.70773,-47.53728 20.2972,-69.21052 m -5.65336,-2.06753 c 2.5513,-8.73396 4.93914,-17.22762 7.1823,-25.5653 1.04482,-5.97869 2.47092,-10.32472 4.1584,-13.25637 0.84374,-1.46582 1.75163,-2.57636 2.701,-3.35116 0.94937,-0.7748 1.94022,-1.2138 2.94385,-1.33276 1.00364,-0.11896 2.01958,0.0823 3.01704,0.58968 0.99745,0.50733 1.97638,1.32073 2.90857,2.42493 1.8644,2.20841 3.5419,5.58114 4.82132,9.98186 1.79968,9.84401 3.45012,19.71962 4.97896,29.50281 m 4.97799,-0.45235 c 5.08024,16.90416 9.79368,34.10053 14.55048,50.99688 m -4.64006,4.99392 c 1.87324,8.65276 3.92205,17.09371 6.07696,25.37213 -0.90184,-21.58377 -1.16816,-44.14097 -1.81746,-66.94884 m 0.43832,4.50785 c 0.1219,-15.98338 -0.22267,-31.70113 -0.56054,-47.14665 6.61052,-0.4118 13.22217,-0.77806 19.8673,-1.09834 m -4.98616,-12.72711 c 13.80008,-1.79471 27.45996,-3.0526 41.01527,-4.00551 -4.40805,15.07669 -8.94373,30.52562 -13.55901,46.03417 m 1.22208,6.1914 c -3.80269,14.07184 -7.5299,27.95242 -11.00774,41.53992 m -5.06412,-1.64463 c -5.31234,19.90596 -10.94264,39.69915 -16.08572,58.42066 -5.20541,-0.49207 -10.38004,-1.05185 -15.51111,-1.69455 m 6.94214,2.30404 c -3.62466,-0.12603 -7.21989,-0.22693 -10.78952,-0.30693 -8.86992,-25.24923 -16.32807,-49.34671 -23.94239,-74.03229 -0.70439,1.9869 -1.40982,3.96987 -2.11717,5.94793 m 5.27887,-9.87025 c -9.12321,23.24062 -18.01099,47.43331 -26.63424,71.91616 -5.31023,0.18331 -10.60834,0.3799 -15.89405,0.58329 m 10.59663,-4.82327 c -5.33731,0.12222 -10.742927,0.24792 -16.212321,0.38685 C 85.5605,478.12308 80.403399,467.36105 75.725336,456.98318 71.047274,446.60531 66.844649,436.60864 62.804079,426.93613 m -9.003612,7.65262 c -0.996438,-3.6622 -1.933413,-7.34308 -2.823825,-11.04417 -2.637624,-10.96356 -4.868375,-22.1011 -7.018403,-33.48973 -2.150028,-11.38863 -4.222479,-23.02983 -6.497365,-35.0333 m 13.2062,11.29751 c -0.717754,-2.68647 -1.480904,-5.35338 -2.294377,-8.00385 16.719165,3.40111 32.664738,7.89285 48.089272,12.89111 0.05816,12.81124 -0.14085,25.87249 -0.509457,38.98119 m 37.217998,22.42236 -26.40528,68.23299 m 24.1709,-62.4592 -27.88555,72.05812 M 79.78512,491.96433 55.980222,422.53337 M 85.195677,511.4 113.21666,416.74973 m 94.15533,7.22322 -19.71536,68.50865" />
        <path
           inkscape:original-d="m 250.36856,371.71368 20.52026,0 0,124.90595 -40.14036,1.13652 19.6201,-126.04247 z m -14.71508,-46.35107 35.23534,-2.27303 0,25.9849 -20.52026,0 -14.71508,-23.71187 z"
           sodipodi:nodetypes="cccccccccc"
           id="path4929"
           style="fill:#000000;stroke:none"
           d="m 246.89245,367.49498 c 6.83783,0.0361 13.60211,0.0788 20.32014,0.13189 0.33901,20.09112 0.2571,40.27812 0.50484,60.67235 m 4.18724,-7.50403 c 0.51263,22.53318 0.73235,45.78202 1.36596,69.59677 m 1.79827,-0.32055 c 0.0659,1.62324 0.12248,3.25444 0.17026,4.8931 -13.00114,-0.011 -26.55582,0.44722 -40.41153,1.12561 2.14131,-17.48321 3.73195,-34.56371 5.39659,-51.85779 m -1.61211,7.84006 c 3.28884,-26.24054 7.79097,-53.61845 11.87992,-81.60776 -5e-5,-0.002 -9e-5,-0.004 -1.4e-4,-0.005 0.29563,-0.0163 0.59122,-0.0327 0.88676,-0.0491 m 5.59145,-4.16517 c 4.76346,-0.0564 9.54183,-0.0752 14.33125,-0.0597 -0.0892,13.31987 -0.0947,26.89937 -0.0973,40.66571 m 3.31754,6.91053 c -0.2405,28.36001 0.80239,56.14941 2.60686,84.06488 m -9.44289,-7.35281 c -0.0296,1.72296 -0.0566,3.43698 -0.0813,5.14262 -13.58142,0.87027 -27.01066,1.18584 -40.402,1.25022 1.89152,-12.50847 3.81537,-25.2313 5.68145,-37.92923 m 7.59635,13.74699 c 1.95085,-13.13292 4.32896,-27.16137 7.03354,-41.73754 m -9.64596,-8.92205 c 2.17622,-18.62555 5.49147,-36.22282 9.41584,-53.43524 m 2.89848,6.74766 c 0.30885,-2.0323 0.6215,-4.06164 0.93795,-6.0885 1.1e-4,-6.3e-4 2.3e-4,-0.001 3.4e-4,-0.002 6.86373,-0.12817 13.77136,-0.22774 20.72286,-0.31699 0.33713,20.42685 1.07593,40.9482 2.21559,61.05768 m -19.5886,-57.17949 c 3.68918,0.10586 7.39885,0.15795 11.12602,0.16037 -0.17112,16.13904 -0.0216,31.36737 0.21291,46.00478 m -1.67809,1.16637 c -0.25891,18.13887 0.60438,36.02658 2.37383,53.84335 m 5.16518,-4.26024 c -0.18046,9.41776 -0.40064,18.63523 -0.70182,27.73264 -5.78854,0.1836 -11.6081,0.32122 -17.46847,0.43188 m 7.22096,2.55139 c -8.67523,-0.12017 -17.24311,-2.5e-4 -25.75161,0.29009 3.19868,-21.76758 6.80778,-42.35727 9.95567,-63.03545 m -5.91509,2.03565 c 2.54422,-21.74252 6.21285,-43.80386 10.01361,-66.6229 7.3e-4,-0.002 0.001,-0.004 0.002,-0.007 4.63596,-0.29875 9.27765,-0.63081 13.91594,-1.0002 m -6.59584,-0.73672 c 6.27727,0.012 12.51929,-0.0154 18.73696,-0.0818 0.052,7.62144 0.0661,15.18236 0.0634,22.68385 m -4.1396,-7.79496 c 0.23816,14.61936 1.7e-4,28.74448 -0.58817,42.60269 m -3.31784,5.07694 c 0.90108,22.05032 0.71637,43.1263 0.59425,63.59186 -4.63424,-0.14576 -9.26568,-0.31889 -13.8834,-0.51594 m -3.0301,-6.41811 c -9.46013,0.002 -18.75924,0.25339 -27.89669,0.69131 4.43495,-22.85001 9.87036,-44.54651 16.31598,-66.0639 m 2.24865,11.53475 c 2.82345,-14.69611 5.20886,-29.57359 7.46422,-44.47675 m 1.04967,-1.58689 c 0.78798,-7.21964 1.687,-14.31569 2.6573,-21.32105 -5.5e-4,-1.5e-4 -0.001,-2.9e-4 -0.002,-4.3e-4 6.72895,-0.0292 13.52465,0.0266 20.35093,0.13752 -0.0109,5.505 -0.003,11.04455 0.007,16.60376 m -15.77103,-17.94382 c 4.17343,0.1266 8.33678,0.24686 12.49746,0.36631 1.16363,30.12692 2.18467,60.21041 5.96199,92.41089 m 2.33368,-16.73883 c -0.0535,15.49377 -0.71121,30.88864 -2.00453,46.39301 -9.12574,0.43121 -18.44726,0.89614 -27.96996,1.43043 m 5.58891,5.95502 c -6.20053,0.28938 -12.41177,0.48035 -18.63934,0.58491 1.3891,-9.83126 2.73645,-19.88342 4.01912,-30.1074 m -9.52229,7.80438 c 3.6686,-30.9901 11.20401,-60.62373 19.7915,-90.05823 m -2.55035,2.85407 c 0.82697,-5.25904 1.69426,-10.50168 2.60405,-15.73592 6.8e-4,-5.1e-4 0.001,-0.001 0.002,-0.002 6.98151,-0.10358 14.03611,-0.19281 21.16872,-0.28573 0.0665,1.53407 0.13705,3.06795 0.21169,4.60144 m -28.45572,-48.81722 c 9.84146,-0.57061 19.43532,-1.28988 28.8429,-2.14555 -0.17423,8.44889 -0.49944,16.78723 -0.9309,25.02396 -7.18081,-0.33555 -14.42788,-0.73447 -21.71919,-1.19235 -1.62661,-2.5132 -3.26033,-5.03588 -4.89973,-7.56775 m 7.17587,9.37874 c -4.58957,-8.01695 -9.31639,-15.76167 -14.14261,-23.3111 8.21374,-0.42478 16.34353,-0.68467 24.41874,-0.83936 m -17.29839,-8.43692 c 9.86871,-0.58985 19.75657,-1.2392 29.66589,-1.93584 0.0424,8.6086 0.10123,17.18087 0.17812,25.72503 -2.96678,-0.0406 -5.9314,-0.0846 -8.89381,-0.13153 m 0.53513,-2.51104 c -5.02081,-0.0753 -10.0264,-0.0765 -15.01309,-0.009 -4.73714,-7.77956 -9.41087,-15.32728 -13.99856,-22.67387 3.51498,-0.0152 7.0415,-0.003 10.58067,0.0338 m -3.68615,13.50762 c 9.00744,-0.19401 17.84683,-0.62196 26.5779,-1.20747 0.0134,8.63869 -0.0796,17.12247 -0.22098,25.52579 -5.00074,-0.14673 -10.01705,-0.31943 -15.03828,-0.50445 m 7.60782,-9.08708 c -2.95188,-0.0799 -5.89566,-0.13307 -8.83286,-0.16134 -5.08287,-7.99521 -10.09718,-15.73073 -15.09409,-23.26515 4.53167,-0.11306 9.06757,-0.17724 13.60157,-0.19955 m -5.7396,-0.4325 c 10.40338,-0.40464 20.80627,-0.9872 31.22326,-1.67224 0.052,8.64741 0.11376,17.2234 0.19389,25.77188 -2.70766,-0.0357 -5.41348,-0.0741 -8.11722,-0.11394 m -7.80264,3.12005 c -6.34109,0.0377 -12.51199,0.075 -18.5425,0.11564 -4.89147,-7.84129 -9.44985,-15.67435 -13.78397,-23.48451 5.32088,-0.27271 10.70715,-0.53875 16.14168,-0.79581 m -1.97887,-5.17951 c 9.00458,-0.32214 17.91068,-0.75327 26.78498,-1.24484 0.19498,8.72964 0.35843,17.39932 0.55625,26.05703 -6.68387,-0.003 -13.34631,-0.0137 -19.95486,-0.008 -2.92708,-5.03539 -5.81362,-10.05863 -8.63847,-15.05431 m -0.91864,5.84252 c -2.3882,-3.77921 -4.71666,-7.55193 -6.98799,-11.31823 11.55007,-0.70901 23.47545,-1.37595 35.73227,-2.00257 m -27.28408,99.64256 12.33487,-79.24102 m 31.85673,153.41604 -71.2605,2.01765 m 55.41624,-56.8967 0,70.9375 m 0,-104.12258 0,81.13281 m -4.12555,-113.7468 -48.28043,-77.79904" />
        <path
           inkscape:original-d="m 309.66303,354.91205 35.34687,7.95562 -11.44506,62.7117 84.11634,-58.41176 3.31782,4.54607 -58.06972,57.30162 60.8578,67.60433 -46.38566,0 -43.83658,-61.00317 0,61.00317 -38.61688,1.13652 14.71507,-142.8441 z"
           sodipodi:nodetypes="cccccccccccc"
           id="path4931"
           style="fill:#000000;stroke:none"
           d="m 320.49278,354.82644 c 10.70235,2.36782 21.5154,4.95761 32.38355,7.74363 -2.41306,13.63573 -4.74586,27.55729 -7.09613,41.71945 m -1.74019,-14.0343 c -2.00657,9.57667 -3.93881,19.00994 -5.87503,28.40118 15.39936,-10.56613 30.78135,-21.31589 45.43107,-31.32393 m -0.0318,9.18511 c 12.25263,-8.32444 24.73333,-16.68079 37.40739,-24.94102 m -6.93685,-4.0608 c 1.82501,-1.19678 3.63295,-2.39129 5.42501,-3.58352 1.16731,1.51943 2.32192,3.04067 3.46468,4.56376 -10.64192,10.8623 -22.07947,21.84811 -33.84566,32.96587 m -4.51317,0.40445 c -9.03757,9.09452 -17.8835,17.83984 -26.66567,26.43066 2.26484,2.52212 4.53458,5.03235 6.8065,7.53486 m -0.86184,-2.83624 c 10.31115,11.74922 20.64158,22.89896 30.86245,33.51891 m -0.73295,3.71349 c 7.98173,8.89193 16.25936,17.90525 24.66523,26.85305 -1.88712,-0.0558 -3.77133,-0.11308 -5.6532,-0.17248 m 3.38174,0.33624 c -13.42435,0.24909 -26.8981,0.0538 -40.18487,-0.45901 -6.43023,-10.0875 -12.72333,-20.40791 -18.73084,-30.88164 m 6.93149,10.1889 c -9.41431,-12.8949 -18.55845,-25.16906 -27.74766,-37.12291 -0.18796,10.94596 -0.39772,22.04681 -0.73526,33.20154 M 329.81496,460.744 c 0.12645,11.33134 0.0715,22.54601 -0.12533,33.80928 -7.74704,0.55053 -15.56458,1.12519 -23.43878,1.78185 m 10.81657,1.30355 c -5.76763,0.36519 -11.58061,0.66448 -17.43983,0.91532 2.30386,-26.5781 3.58429,-54.22879 3.74899,-81.13687 m 0.10705,11.41974 c 1.63911,-13.68785 3.04826,-27.35778 4.34272,-40.93908 m 2.44093,2.35872 c 1.65236,-10.70924 2.87661,-21.93899 3.84299,-33.57025 -5.2e-4,-0.002 -0.001,-0.003 -0.002,-0.005 11.59224,2.03474 22.88113,3.59664 34.08454,4.83803 -1.42647,5.43675 -2.87599,10.78708 -4.31805,16.07232 m -28.88767,-17.32195 c 9.45363,2.03067 19.35434,4.22123 29.58851,6.51883 -1.03011,7.14496 -1.89081,14.34431 -2.62322,21.5789 M 340.073,386.7075 c -3.41341,14.30519 -5.90889,28.94093 -7.91825,43.54832 12.95397,-8.78426 26.38077,-17.59608 39.86615,-26.77975 m -6.5037,0.80777 c 17.74537,-12.96056 36.08632,-25.20362 55.33569,-37.74792 1.262,1.47953 2.53105,2.95671 3.80738,4.43085 -3.60294,3.94783 -7.13629,7.86658 -10.59373,11.73562 m 3.33803,3.95139 c -11.31893,10.48762 -22.70927,21.12912 -34.13291,31.41403 m -1.93619,-7.91414 c -6.48278,6.47547 -12.96348,12.81563 -19.49278,19.08746 4.24641,5.04959 8.46463,10.05955 12.63227,15.05947 m -1.22891,-2.34946 c 9.60307,10.83849 19.02377,21.43901 28.16451,31.80641 m -2.71493,-9.84683 c 7.74225,8.60082 15.11055,17.05994 22.2509,25.54073 -3.19187,0.11291 -6.40284,0.22765 -9.62935,0.34815 m 6.86842,4.2814 c -13.07199,0.58136 -26.53547,0.77395 -40.22318,0.85884 -8.68315,-11.58188 -17.62386,-23.28747 -26.61625,-34.7708 m 1.13694,7.04299 c -6.93411,-10.27751 -13.87093,-20.26609 -20.60517,-29.96001 0.25157,5.02166 0.53209,10.08544 0.85265,15.19163 m 3.02192,-6.53208 c 0.28435,16.41525 0.25966,32.6465 0.14247,48.59002 -12.96348,-0.0939 -25.98297,-0.36195 -38.95647,-0.85305 0.19939,-2.23876 0.40002,-4.4835 0.60233,-6.73443 m -2.33851,10.09354 c -0.91553,0.0338 -1.83191,0.0679 -2.74902,0.10245 4.04828,-27.74465 7.46151,-55.16119 12.86546,-81.87931 m -6.22277,2.62277 c 1.57922,-21.87922 4.36525,-43.33881 7.47778,-64.30718 0.001,0.001 0.003,0.003 0.004,0.004 3.96524,1.02932 7.94071,2.0741 11.9215,3.13471 m 2.0849,-2.48652 c 8.73623,1.91318 17.63727,3.96643 26.65188,6.13632 -3.58634,20.63916 -6.59986,41.86668 -9.62105,63.41728 m 1.4406,-6.64801 c -0.55789,2.42289 -1.09761,4.84857 -1.62109,7.2775 11.5126,-8.1529 23.61311,-16.18863 35.88192,-24.01204 m -11.73776,0.0191 c 16.60772,-12.49586 34.28595,-23.65364 52.90023,-34.44655 1.27901,1.59159 2.56596,3.18628 3.86073,4.7833 -4.00431,4.88738 -7.91308,9.80323 -11.7308,14.71517 m 4.95924,-1.51221 c -10.96922,10.58307 -21.32466,20.99421 -31.33686,31.37034 m 0.10041,0.52948 c -6.03522,5.52877 -11.8758,11.1602 -17.55656,16.85168 13.26602,14.15434 27.41369,28.63991 41.99202,42.90453 m -9.34118,-11.61305 c 9.76756,9.87412 18.71147,20.26534 27.15747,31.04226 -11.15851,0.49581 -22.61909,1.22561 -34.22783,2.12731 m 10.91431,-4.66242 c -6.13117,-0.0247 -12.43259,0.0168 -18.88043,0.12208 -6.9859,-9.28265 -14.46599,-18.35002 -22.29265,-27.21743 m -0.15826,6.1522 c -8.0876,-10.73879 -16.10448,-21.86673 -24.04313,-33.10628 0.0117,1.02019 0.0239,2.03978 0.0364,3.05888 m 0.72714,-4.8195 c 0.49219,20.09896 1.25081,38.97309 2.77735,57.06293 -1.13159,-0.0633 -2.26019,-0.12965 -3.38569,-0.19894 m 1.01594,2.32345 c -11.80187,0.42671 -24.05296,0.81054 -36.57719,1.17746 0.40972,-5.21116 0.76928,-10.42542 1.09255,-15.64074 m 3.23546,-3.02475 c 2.28534,-21.67965 4.37427,-43.26912 6.23307,-63.83714 m -2.31335,6.31358 c 1.53574,-14.98449 2.69441,-30.13679 3.43488,-45.17114 m -6.59554,2.41145 c 0.86972,-8.37656 1.69066,-16.7604 2.46716,-25.18503 -2.7e-4,-9.4e-4 -5.4e-4,-0.002 -8.2e-4,-0.003 11.68277,2.312 23.27002,4.53602 34.77543,6.56641 -1.93331,8.90239 -3.91779,17.68372 -5.94668,26.29179 m -24.21799,-30.37736 c 10.88443,2.15699 21.31085,4.22948 31.42625,6.15934 -1.91931,8.80614 -4.07629,17.50329 -6.37275,26.05262 m 2.61559,4.74015 c -2.04807,12.89604 -4.17129,25.44527 -6.25076,37.74043 15.84971,-11.33711 31.79317,-23.21876 48.20341,-35.35399 m -7.21062,2.24202 c 14.74238,-10.40838 29.74556,-20.73461 45.09268,-31.19408 1.18061,1.48433 2.36502,2.96719 3.55335,4.44832 -1.59377,1.63255 -3.18121,3.2623 -4.76212,4.88874 m 1.76464,-8.66037 c -9.93362,9.26436 -19.42889,19.07544 -28.64783,29.32348 m 2.72636,-0.8589 c -10.43198,10.4649 -20.29238,20.76752 -29.75278,31.1698 10.6024,11.4681 21.64095,23.04487 32.92029,35.02853 m -0.8686,-8.55729 c 11.76381,13.09981 22.8362,25.44403 33.69981,37.6016 -8.24929,-0.0928 -16.54854,-0.23028 -24.84125,-0.34583 m 1.00826,-1.46435 c -9.71073,-0.0739 -19.21559,0.0894 -28.56794,0.47286 -5.39591,-7.31018 -10.63968,-14.40077 -15.78448,-21.28887 m 7.24814,10.10246 c -10.5944,-14.07011 -21.09668,-28.07874 -31.93652,-42.07806 -0.58461,12.96773 -1.36006,25.94073 -2.50899,38.89681 m -1.99106,-13.14949 c 0.0975,9.52784 0.35001,19.16136 0.77996,28.88466 -11.40777,0.52052 -22.53997,1.18048 -33.35327,1.94908 m 5.52941,9.05283 c -1.92059,0.0534 -3.84092,0.10595 -5.76102,0.15752 2.60121,-25.64167 5.24481,-51.45419 7.87723,-77.52311 m -7.41462,-0.35534 c 2.36495,-23.24089 5.87765,-47.18951 10.33953,-70.40463 0.003,0.001 0.005,0.003 0.008,0.004 8.2966,2.02679 16.69237,4.13044 25.1806,6.35966 m -13.34789,-7.54498 c 9.08141,2.43026 18.23632,4.76039 27.33903,7.0619 -2.18623,9.60366 -4.42261,19.17982 -6.82746,28.79579 m 4.96024,3.05474 c -2.71652,12.3932 -5.04564,24.34462 -7.19734,35.99419 14.04519,-10.26798 28.43266,-21.11825 42.5998,-32.17588 m -13.74397,1.7115 c 14.79289,-11.2302 30.62957,-21.41261 46.73604,-30.93163 0.13439,0.19091 0.26881,0.3819 0.40326,0.57299 m 3.36461,0.31924 c 0.69989,-0.4349 1.39883,-0.87233 2.09687,-1.31221 1.1508,1.5861 2.2969,3.15953 3.43877,4.72109 -18.83579,19.77018 -38.56192,37.04352 -57.78397,54.17825 2.21165,2.20158 4.43064,4.40115 6.65942,6.60285 m -14.29868,-4.34965 c 13.42345,14.53176 26.69994,29.13802 40.1678,43.79836 m 9.07592,6.70641 c 6.62207,7.50192 13.10441,15.16869 19.38967,22.97982 -11.69052,0.25454 -23.61491,0.68038 -35.84732,1.25103 m 2.72057,-1.7714 c -6.52951,0.24456 -12.93076,0.34956 -19.21886,0.34186 -5.35543,-7.6782 -10.46405,-15.60224 -15.37457,-23.68562 m 3.41392,-7.03995 c -9.30535,-13.58452 -18.85583,-26.21704 -28.60307,-38.2772 -0.2105,9.62206 -0.48367,19.42641 -0.81081,29.34483 m -9.25624,6.79883 c -0.4716,11.9293 -0.57108,23.54375 -0.47267,34.87945 -3.10499,-0.0417 -6.19613,-0.10285 -9.27665,-0.18286 m 9.2828,3.41187 c -10.81266,0.16512 -21.68835,0.12968 -32.55733,-0.16118 0.27888,-2.48944 0.55807,-4.99065 0.83826,-7.50417 m -2.8108,-10.58803 c 1.81654,-25.4238 5.28765,-48.53017 9.31197,-71.10932 m 3.9807,5.43088 c 1.75489,-21.08883 3.81344,-43.43523 5.4763,-65.72642 -9.2e-4,-3.1e-4 -0.002,-6.1e-4 -0.003,-9.2e-4 5.40969,1.20033 10.79318,2.40444 16.13858,3.63462 m -22.14573,66.56664 9.73089,-94.46105 m -18.86818,183.15974 10.10316,-98.07474 m 95.69881,-22.50093 -53.82977,53.11776 m -44.41548,-5.89772 7.52133,-73.01206 M 384.718,506.80142 334.84245,437.39438" />
        <path
           inkscape:original-d="m 446.20323,371.71368 20.52026,0 19.6201,124.90595 -40.14036,0 0,-124.90595 z m 0,-48.6241 20.52026,0 14.71508,24.84838 -35.23534,1.13652 0,-25.9849 z"
           sodipodi:nodetypes="cccccccccc"
           id="path4933"
           style="fill:#000000;stroke:none"
           d="m 452.49209,370.65926 c 6.24033,0.17343 12.51321,0.29725 18.79641,0.39091 3.08191,23.51664 6.30083,46.63276 8.58006,70.29095 m -3.65793,-3.3025 c 2.3934,19.82415 5.89582,40.39317 9.73454,61.78436 -12.6896,1.07329 -25.23336,2.50315 -37.85197,4.31164 m 0.57945,-8.76452 c -2.05029,0.0947 -4.09383,0.18666 -6.13095,0.27682 -0.20413,-24.61596 0.63544,-49.5193 1.83135,-72.57162 m 5.61943,1.69248 c 0.32743,-16.53022 0.38399,-33.2699 0.43366,-49.75364 6.85994,0.25101 13.71878,0.5429 20.59338,0.90542 0.31399,2.03983 0.62927,4.08545 0.94624,6.13757 m -26.97351,-9.56218 c 6.71818,0.0106 13.42957,-0.0168 20.12263,-0.0807 2.66745,18.99295 5.18628,37.69049 7.2903,56.13074 m -4.78582,-14.24325 c 2.84744,24.20841 7.37234,50.48656 11.71748,77.4827 -6.45498,0.52389 -12.92207,1.09618 -19.43378,1.6932 m 7.62099,5.79872 c -8.14495,0.38761 -16.14244,0.65781 -24.02712,0.87552 0.08,-11.09581 0.39292,-22.29998 0.83602,-33.41997 m -3.677,8.19759 c -1.23933,-30.9384 0.17484,-63.21986 1.12074,-97.89321 m 5.44226,-2.84473 c 0.0245,-2.43018 0.0525,-4.85885 0.0845,-7.2847 6.92742,0.21758 13.88443,0.45615 20.87977,0.74219 2.91882,16.89701 6.0582,34.06718 9.53871,51.87592 m -28.27645,-46.79599 c 5.82084,-0.18281 11.71436,-0.35697 17.67799,-0.53907 2.84656,15.60572 6.23802,31.14971 10.11854,46.27214 m -9.79799,-7.01805 c 2.9007,26.30134 7.63622,53.90543 11.5807,81.72074 -2.75164,0.0976 -5.51122,0.19724 -8.28141,0.29795 m 18.10445,6.63344 c -12.45385,-0.0703 -25.29003,-0.0515 -38.32619,0.0206 -0.11418,-8.31653 -0.31295,-16.61054 -0.54613,-24.89187 m -0.0617,-7.09115 c -0.82963,-18.61115 -0.79418,-37.298 -0.69178,-55.89035 m -3.68256,3.82549 c 0.3813,-16.3191 0.55418,-32.78943 0.82413,-48.77486 6.94788,0.45653 13.91125,0.99039 20.90954,1.64208 0.58322,3.54287 1.17442,7.11269 1.77574,10.71388 m -12.25933,-12.11598 c 4.84005,-0.0259 9.67431,-0.0103 14.50852,0.0452 3.92006,22.48677 7.839,45.87237 12.3687,69.99826 m -7.72216,-1.85268 c 3.86134,20.47445 6.80017,42.71084 9.43549,65.53666 -4.30572,0.27319 -8.62265,0.56817 -12.94641,0.87661 m 11.52133,-5.79177 c -11.75834,0.0496 -23.3552,0.009 -34.86415,-0.10254 0.0585,-14.73155 0.25724,-29.57669 0.44795,-44.49761 m -10.67944,0.46185 c -0.521,-27.61231 -0.18108,-56.13341 -0.19853,-82.39206 0.96764,0.0917 1.93488,0.18591 2.90168,0.28277 m 3.85988,9.8937 c 0.0402,-1.18023 0.0761,-2.36085 0.10784,-3.54195 7.02739,-0.13612 13.90861,-0.28891 20.67365,-0.47481 2.58321,17.20948 4.36968,34.19191 5.89828,50.65225 m -22.11012,-54.91419 c 3.75004,-0.0107 7.53543,-0.0264 11.34947,-0.0477 3.53495,26.60384 8.4436,52.94215 12.4997,78.85007 m 2.1637,-12.12135 c 2.99441,16.50368 5.77087,33.9491 8.61948,52.23845 -7.7902,0.77629 -15.56451,1.73836 -23.29296,2.87612 m 3.97016,-5.87435 c -6.90681,-0.27138 -13.91701,-0.29828 -21.00489,-0.11779 0.0159,-15.06371 -0.33679,-29.14314 -0.79216,-42.62172 m 1.99578,11.75894 c 0.21132,-13.58766 0.14806,-27.67237 -0.0837,-42.10134 m 9.6933,4.91101 c 0.67219,-15.67068 0.27768,-31.28352 -0.74147,-46.94293 6.39072,-0.0645 12.66,-0.13803 18.84573,-0.22958 0.0816,1.33577 0.1598,2.67082 0.23496,4.00507 m -30.09719,-48.32444 c 5.87152,-0.17584 11.71386,-0.31824 17.53588,-0.44336 4.98787,8.07415 9.91926,16.19634 14.83534,24.29165 -9.01347,0.11522 -18.04041,0.20678 -27.04684,0.21285 m 8.65069,-3.04178 c -3.27053,0.0456 -6.53527,0.12279 -9.79406,0.22994 0.0513,-8.65791 0.14416,-17.10697 0.2812,-25.37787 5.3e-4,0.002 0.001,0.003 0.002,0.005 5.26882,0.23479 10.55349,0.53342 15.85462,0.8893 m -15.59182,6.04755 c 6.80361,-1e-5 13.5421,-0.0101 20.23078,-0.0298 4.6133,7.72278 9.13581,15.42797 13.60519,23.11654 m 6.32458,-2.46612 c 0.96275,1.74105 1.92678,3.47538 2.89138,5.20305 -12.11075,0.33742 -24.20236,0.44885 -36.41669,0.3503 -0.0731,-1.906 -0.14925,-3.81709 -0.22889,-5.73323 m -7.69619,-4.85118 c -0.34838,-7.6647 -0.67795,-15.18644 -1.03964,-22.60853 -0.002,-2.3e-4 -0.003,-4.6e-4 -0.005,-6.8e-4 6.50419,-0.0464 12.98052,-0.007 19.38829,0.0829 4.29661,8.40974 8.45744,16.92051 12.36904,25.43582 -6.64372,0.33978 -13.38508,0.68133 -20.25189,1.001 m -8.85834,-31.88312 c 4.36722,-0.0738 8.67471,-0.14706 12.93067,-0.22332 5.04068,8.10787 9.81032,16.20008 14.40813,24.23492 -12.12013,0.0761 -24.49632,0.0668 -36.94806,-0.10399 -0.006,-0.10763 -0.0124,-0.21528 -0.0186,-0.32294 m 14.6969,12.52435 c -1.9793,0.0941 -3.96024,0.1823 -5.94314,0.26481 -0.14457,-8.57462 -0.32752,-17.26073 -0.57493,-26.03105 -9.5e-4,-4.2e-4 -0.002,-8.4e-4 -0.003,-0.001 6.64431,-0.0863 13.24838,-0.22513 19.79935,-0.40292 2.11156,3.77072 4.19995,7.52442 6.26146,11.26497 m -17.96896,-13.78109 c 4.57628,0.19913 9.1734,0.34413 13.78529,0.44688 4.76777,8.49421 9.59805,16.8096 14.43789,25.04969 -11.82469,0.32671 -23.63512,0.54123 -35.52759,0.8319 -0.0648,-5.2067 -0.14548,-10.39867 -0.25021,-15.55989 m -8.96902,-2.37985 c -0.14242,-4.32482 -0.20253,-8.67516 -0.18793,-13.04441 1.1e-4,6e-4 2.2e-4,0.001 3.4e-4,0.002 6.86425,0.12358 13.90488,0.20258 21.09433,0.26095 5.39668,8.36494 11.0881,16.68903 16.99739,25.03903 -0.73516,0.0322 -1.46873,0.0646 -2.20076,0.0972 m -23.71116,-21.48558 c 3.99538,0.15742 8.00915,0.24308 12.03383,0.26442 4.59689,8.3322 9.25221,16.31965 13.873,24.05482 -10.46949,-0.25081 -20.97756,-0.78345 -31.63397,-1.48874 m 7.46962,-2.36007 c -3.02983,-0.0478 -6.01249,-0.0767 -8.95129,-0.0895 -0.15966,-8.97951 0.0755,-17.8157 0.61651,-26.59287 0.002,-4.4e-4 0.004,-8.9e-4 0.006,-0.001 7.26917,-0.0909 14.72884,-0.14517 22.33518,-0.20439 1.49874,2.05382 3.0157,4.10702 4.54897,6.1578 m -24.59469,147.19653 0,-88.51562 m -39.74379,-60.41358 86.28906,0 m -46.54527,87.94198 0,-72.22656 m 70.2655,157.81463 -96.60156,0 m 44.0379,-142.84863 12.08072,76.90853" />
      </g>
      <rect
         ry="2.8235295"
         y="92.362183"
         x="109"
         height="24"
         width="24"
         id="rect5026"
         style="color:#000000;fill:#ffffff;fill-opacity:1;fill-rule:nonzero;stroke:none;stroke-width:4;marker:none;visibility:visible;display:inline;overflow:visible;enable-background:accumulate" />
      <rect
         style="color:#000000;fill:#ffffff;fill-opacity:1;fill-rule:nonzero;stroke:none;stroke-width:4;marker:none;visibility:visible;display:inline;overflow:visible;enable-background:accumulate"
         id="rect5028"
         width="24"
         height="24"
         x="109"
         y="146.36218"
         ry="2.8235295" />
      <rect
         ry="2.8235295"
         y="200.36218"
         x="109"
         height="24"
         width="24"
         id="rect5030"
         style="color:#000000;fill:#ffffff;fill-opacity:1;fill-rule:nonzero;stroke:none;stroke-width:4;marker:none;visibility:visible;display:inline;overflow:visible;enable-background:accumulate" />
      <rect
         style="color:#000000;fill:#ffffff;fill-opacity:1;fill-rule:nonzero;stroke:none;stroke-width:4;marker:none;visibility:visible;display:inline;overflow:visible;enable-background:accumulate"
         id="rect5032"
         width="24"
         height="24"
         x="109"
         y="253.36218"
         ry="2.8235295" />
      <rect
         ry="2.8235295"
         y="306.36218"
         x="109"
         height="24"
         width="24"
         id="rect5034"
         style="color:#000000;fill:#ffffff;fill-opacity:1;fill-rule:nonzero;stroke:none;stroke-width:4;marker:none;visibility:visible;display:inline;overflow:visible;enable-background:accumulate" />
      <rect
         style="color:#000000;fill:#ffffff;fill-opacity:1;fill-rule:nonzero;stroke:none;stroke-width:4;marker:none;visibility:visible;display:inline;overflow:visible;enable-background:accumulate"
         id="rect5036"
         width="24"
         height="24"
         x="109"
         y="358.36218"
         ry="2.8235295" />
      <rect
         ry="2.8235295"
         y="410.36218"
         x="109"
         height="24"
         width="24"
         id="rect5038"
         style="color:#000000;fill:#ffffff;fill-opacity:1;fill-rule:nonzero;stroke:none;stroke-width:4;marker:none;visibility:visible;display:inline;overflow:visible;enable-background:accumulate" />
      <rect
         style="color:#000000;fill:#ffffff;fill-opacity:1;fill-rule:nonzero;stroke:none;stroke-width:4;marker:none;visibility:visible;display:inline;overflow:visible;enable-background:accumulate"
         id="rect5040"
         width="24"
         height="24"
         x="109"
         y="465.36218"
         ry="2.8235295" />
      <rect
         ry="2.8235295"
         y="519.36218"
         x="109"
         height="24"
         width="24"
         id="rect5042"
         style="color:#000000;fill:#ffffff;fill-opacity:1;fill-rule:nonzero;stroke:none;stroke-width:4;marker:none;visibility:visible;display:inline;overflow:visible;enable-background:accumulate" />
      <rect
         style="color:#000000;fill:#ffffff;fill-opacity:1;fill-rule:nonzero;stroke:none;stroke-width:4;marker:none;visibility:visible;display:inline;overflow:visible;enable-background:accumulate"
         id="rect5044"
         width="24"
         height="24"
         x="109"
         y="573.36218"
         ry="2.8235295" />
      <rect
         ry="2.8235295"
         y="625.36218"
         x="109"
         height="24"
         width="24"
         id="rect5046"
         style="color:#000000;fill:#ffffff;fill-opacity:1;fill-rule:nonzero;stroke:none;stroke-width:4;marker:none;visibility:visible;display:inline;overflow:visible;enable-background:accumulate" />
      <path
         id="path4992"
         d="m 52.36611,647.41626 c -4.57175,-0.31022 -7.89075,-1.15241 -7.37557,-1.87154 0.51519,-0.71912 5.2127,-0.92676 10.43893,-0.46144 5.22622,0.46533 19.51329,0.0105 31.74902,-1.01015 18.40967,-1.53605 22.93824,-2.40665 26.25566,-5.04754 3.30573,-2.63161 4.27485,-2.82005 5.52542,-1.07442 1.21441,1.69513 2.03249,1.74757 4.10573,0.2632 2.96976,-2.12626 5.18311,-0.17059 3.66628,3.23945 -2.08788,4.69383 -43.78836,8.03726 -74.36547,5.96244 z m -4.74492,-6.87564 c 2.39382,-1.17517 7.48613,-2.6444 11.31624,-3.26496 5.79923,-0.93961 6.38155,-1.33178 3.48192,-2.34507 -1.91505,-0.66924 -6.8115,-1.26429 -10.881,-1.32234 -4.0695,-0.0581 -7.39908,-0.78142 -7.39908,-1.60747 0,-0.82605 0.82967,-1.5019 1.84371,-1.5019 1.01404,0 1.40668,-0.61002 0.87253,-1.35561 -1.40537,-1.96171 8.64998,-4.65932 21.22197,-5.69334 16.22068,-1.33411 13.51758,1.75362 -3.33509,3.80964 -13.9623,1.7034 -16.84966,2.47228 -15.0652,4.01173 2.40653,2.07607 70.58594,-0.91375 75.0444,-3.29088 0.93199,-0.4969 1.34376,0.005 0.91502,1.11397 -0.42873,1.10959 -3.46824,2.58447 -6.75446,3.27752 -3.28622,0.69304 -7.15009,1.63855 -8.58638,2.10111 -1.43629,0.46257 -9.07476,0.72961 -16.97437,0.59343 -11.36859,-0.19598 -14.36292,0.19615 -14.36292,1.88094 0,1.50964 -3.16385,2.40144 -10.881,3.0671 -5.98456,0.5162 -14.01474,1.32651 -17.84485,1.80067 -6.72289,0.83231 -6.81325,0.7882 -2.61144,-1.27454 z m 10.44576,-45.61949 c -10.91445,-0.70933 -15.96873,-1.8378 -14.90178,-3.3271 0.50009,-0.69806 4.25342,-0.73834 8.34076,-0.0895 4.08733,0.64884 18.47807,0.71342 31.97945,0.14359 19.80353,-0.83589 25.12709,-1.53578 27.54448,-3.62121 3.54865,-3.06138 5.64362,-3.28142 6.73754,-0.7077 0.63834,1.5019 1.25929,1.5019 3.1047,0 3.47052,-2.82451 5.40065,-2.26535 4.77816,1.38423 -0.33677,1.9744 -1.93048,3.37215 -4.03825,3.54173 -1.91506,0.15406 -8.13054,1.05184 -13.81219,1.99505 -9.58607,1.59134 -31.17599,1.88698 -49.73287,0.68093 z m -11.22919,-7.837 c 1.40244,-1.15444 22.84883,-4.64617 28.53704,-4.64617 1.0135,0 1.84272,0.91605 1.84272,2.03568 0,1.41733 -3.56948,2.32649 -11.75149,2.99313 -16.29227,1.32741 -20.59824,1.23896 -18.62827,-0.38264 z m 28.76455,-6.33996 c -16.6876,-0.68379 -31.14192,-1.93414 -32.12073,-2.77854 -1.21223,-1.04579 0.13545,-1.58302 4.22666,-1.685 5.37175,-0.13397 5.54647,-0.2602 1.65391,-1.19557 -3.93173,-0.94478 -4.03311,-1.15172 -1.04889,-2.14103 1.81691,-0.60234 9.06368,-1.51522 16.10388,-2.02862 15.70949,-1.14559 17.75264,1.63978 2.30851,3.14716 -12.77478,1.24684 -12.22897,4.17893 0.58589,3.14741 19.1447,-1.54106 56.91191,-2.10965 56.91191,-0.85682 0,0.72328 -3.12962,1.77119 -6.95472,2.3287 -3.8251,0.55752 -7.39676,1.63071 -7.93707,2.38487 -0.54029,0.75418 -1.52369,1.26986 -2.18532,1.14597 -0.66164,-0.12391 -14.85646,-0.78473 -31.54403,-1.46853 z M 48.49167,538.9537 c -4.78764,-0.60553 -7.72551,-1.20713 -6.5286,-1.33691 1.19691,-0.12976 2.1762,-1.18631 2.1762,-2.34786 0,-1.42321 2.98064,-2.42842 9.14004,-3.08244 5.02702,-0.53379 12.46963,-1.3498 16.53913,-1.81338 5.82086,-0.66307 7.39908,-0.36726 7.39908,1.38681 0,1.72066 -3.67634,2.51557 -16.10389,3.48206 -14.91143,1.15965 -15.45931,1.31301 -7.39908,2.0711 11.38085,1.0704 53.16592,-1.11405 55.67521,-2.9106 3.12753,-2.2392 15.70417,-1.00063 15.70417,1.54657 0,1.20052 -1.95858,2.4035 -4.3524,2.67328 -9.80162,1.1047 -64.16402,1.35403 -72.24986,0.33137 z m 56.58122,-10.14333 c 0,-0.93276 -11.68133,-1.95264 -30.03157,-2.62203 -16.51737,-0.60253 -31.20672,-1.68944 -32.64301,-2.41536 -1.80002,-0.90973 -0.17716,-1.38053 5.22288,-1.51521 6.24394,-0.15572 6.95078,-0.4128 3.48192,-1.26636 -3.69037,-0.90807 -3.05758,-1.22797 4.16015,-2.10315 4.68191,-0.56769 11.63287,-1.03216 15.44658,-1.03216 6.25775,0 6.70098,0.24291 4.54464,2.49066 -2.2125,2.30633 -0.55298,2.42432 22.41932,1.59412 20.90253,-0.75538 24.80869,-0.55635 24.80869,1.2641 0,1.42536 -1.87882,2.16063 -5.52104,2.16063 -3.03656,0 -6.95372,1.11853 -8.7048,2.48564 -1.75107,1.36709 -3.18376,1.79869 -3.18376,0.95912 z M 50.23263,484.9372 c -10.40382,-0.87042 -10.42828,-0.88385 -6.09336,-3.34187 5.57835,-3.16307 31.33729,-4.78478 31.33729,-1.9729 0,2.41864 4.48341,3.87066 9.27838,3.00495 2.07836,-0.37523 11.74013,-1.01688 21.47062,-1.42588 13.67237,-0.57467 17.89225,-0.293 18.57406,1.23978 0.63239,1.4217 -1.66622,2.24752 -8.11653,2.91607 -10.56082,1.09455 -51.43501,0.83612 -66.45046,-0.42015 z m 54.8932,-9.30172 c -0.0456,-2.08708 -4.18626,-2.57095 -30.08451,-3.51567 -16.51737,-0.60254 -31.20672,-1.68945 -32.64301,-2.41536 -1.8009,-0.91019 -0.34682,-1.33401 4.68489,-1.36551 4.01298,-0.0251 7.78052,-0.72153 8.37231,-1.54757 1.51429,-2.11374 20.02105,-1.94162 20.02105,0.1862 0,1.20363 6.74514,1.4704 23.50296,0.92952 18.14249,-0.58558 23.50297,-0.32928 23.50297,1.12374 0,1.03529 -3.09666,2.30952 -6.88147,2.83163 -3.78874,0.52266 -7.67715,2.12768 -8.65187,3.57124 -1.53611,2.27498 -1.77739,2.30168 -1.82332,0.20178 z M 63.77098,432.34369 c -23.48178,-1.03851 -33.03977,-2.97918 -16.00472,-3.24963 7.34102,-0.11654 8.46598,-0.41611 5.07781,-1.35219 -3.09501,-0.85509 -0.70596,-1.24574 8.26956,-1.35219 7.3697,-0.0874 12.62197,0.47526 12.62197,1.35219 0,1.8488 31.28617,1.96396 40.34282,0.14854 4.17704,-0.83731 7.04438,-0.72073 8.26957,0.33622 2.97836,2.56939 2.19615,4.00665 -2.0417,3.75145 -2.15444,-0.12976 -10.57633,0.12856 -18.71532,0.57395 -8.13899,0.44542 -25.15798,0.35169 -37.81999,-0.20831 z m 41.30191,-11.07333 c 0,-2.1901 -2.21788,-2.56307 -16.10389,-2.70802 -19.56956,-0.20429 -51.21573,-2.19048 -43.95925,-2.759 2.87258,-0.22506 7.02709,-0.28132 9.23222,-0.12511 2.20514,0.15629 5.13707,-0.52326 6.51543,-1.51011 1.66216,-1.19007 5.58846,-1.46803 11.65931,-0.82542 5.03427,0.53287 18.38417,1.05195 29.66646,1.15348 14.03293,0.12631 20.31539,0.70565 19.88696,1.83394 -0.34445,0.90712 -3.30795,1.85611 -6.58555,2.10885 -3.2776,0.25274 -6.93858,1.56467 -8.13549,2.91539 -2.00531,2.263 -2.1762,2.25639 -2.1762,-0.0841 z m -44.3945,-42.71747 c -19.17494,-0.52219 -24.2818,-2.06467 -11.31624,-3.41799 15.91295,-1.66096 72.80366,0.1659 73.78379,2.36933 0.84015,1.88876 -19.24038,2.22585 -62.46755,1.04866 z m 44.59645,-9.56423 c -0.2459,-2.96102 -7.82386,-4.21443 -27.18684,-4.49676 -7.66023,-0.11174 -19.41171,-0.64044 -26.11441,-1.17497 -11.67607,-0.93115 -11.23837,-1.01281 10.44576,-1.94875 27.56806,-1.18988 59.35085,-0.81797 58.75742,0.68758 -0.23938,0.60734 -0.43524,1.78011 -0.43524,2.60615 0,0.82605 -3.07628,1.50191 -6.83619,1.50191 -5.0467,0 -7.04459,0.688 -7.63236,2.62833 -0.66543,2.19667 -0.82936,2.22894 -0.99814,0.19651 z M 91.1452,325.5425 c -14.84169,-0.56893 -32.46891,-1.21842 -39.17161,-1.44328 l -12.18672,-0.40885 13.92768,-1.27806 c 19.87496,-1.82379 66.77926,-1.00978 67.75526,1.17589 0.80486,1.80238 -0.56532,3.72276 -2.32416,3.25743 -0.55856,-0.14779 -13.15876,-0.73418 -28.00045,-1.30313 z m 12.76704,-9.69246 c 0,-1.23907 0.65286,-2.25285 1.45081,-2.25285 0.79794,0 1.4508,1.01378 1.4508,2.25285 0,1.23907 -0.65286,2.25286 -1.4508,2.25286 -0.79795,0 -1.45081,-1.01379 -1.45081,-2.25286 z m -3.19175,-3.80833 c -8.61776,-0.59378 -25.39056,-0.71488 -37.27291,-0.2691 -16.171,0.60667 -21.2897,0.37144 -20.35353,-0.93532 0.76144,-1.06285 0.0186,-1.83235 -1.89871,-1.96705 -1.73219,-0.12165 3.90146,-0.71959 12.51921,-1.3287 8.61776,-0.60911 26.19075,-0.60479 39.0511,0.009 12.86036,0.61442 24.75462,0.80755 26.4317,0.4292 2.37786,-0.53643 2.83883,0.006 2.09365,2.46447 -0.52557,1.7338 -1.84349,3.04529 -2.92872,2.91442 -1.08523,-0.13022 -9.02404,-0.72317 -17.64179,-1.31693 z m 7.83432,-39.21705 c -5.26641,-0.74155 -21.71848,-1.06824 -36.56017,-0.72598 -15.08746,0.34795 -23.14701,0.13578 -18.28009,-0.48124 l 8.7048,-1.10355 -12.18672,-0.44998 -12.18672,-0.44997 16.53912,-1.32197 c 20.42735,-1.63272 64.77413,-0.17959 66.46298,2.17781 1.2981,1.81194 0.24713,4.19614 -1.71495,3.89053 -0.66163,-0.10303 -5.51185,-0.79409 -10.77825,-1.53565 z m -5.08543,-9.4161 c -0.0756,-1.58324 0.33588,-2.47031 0.91438,-1.97124 0.57851,0.49906 0.64036,1.79446 0.13754,2.87865 -0.55577,1.19811 -0.96831,0.84224 -1.05184,-0.90741 z m -55.79899,-3.48159 c -2.36677,-0.38199 -5.7614,-1.57563 -7.54364,-2.65256 -3.02627,-1.82861 -2.90905,-2.02081 1.77349,-2.90804 8.67,-1.64278 40.89072,-1.98606 53.59736,-0.57103 6.7027,0.74642 15.51631,1.43503 19.58581,1.53025 7.61379,0.17812 8.75103,0.93409 5.55412,3.69201 -1.16122,1.00178 -4.54845,1.16584 -9.14005,0.44268 -4.01228,-0.63192 -14.81731,-1.62376 -24.01117,-2.2041 -14.47729,-0.91382 -16.85993,-0.73173 -17.79019,1.35961 -1.07517,2.41712 -11.37455,3.03025 -22.02573,1.31118 z m -0.91968,-39.14185 -5.22288,-0.74586 4.3524,-1.13225 c 3.75452,-0.97671 3.39578,-1.16589 -2.61144,-1.37716 -6.4907,-0.22826 -6.66814,-0.34767 -2.61144,-1.75751 4.78994,-1.66468 50.00218,-2.45525 67.89197,-1.18717 9.17133,0.6501 11.42751,1.3248 11.92806,3.56701 0.448,2.00681 -0.13963,2.51468 -2.14248,1.85165 -1.51789,-0.50249 -12.89899,-1.37538 -25.29132,-1.93978 -19.62479,-0.89377 -22.90113,-0.70729 -25.39651,1.44543 -2.83189,2.44304 -9.76013,2.86598 -20.89636,1.27564 z m -5.22288,-13.8231 c -0.66179,-0.92376 2.23065,-1.5019 7.51395,-1.5019 4.72446,0 11.03816,-0.42241 14.03043,-0.93869 4.30777,-0.74325 5.44051,-0.43055 5.44051,1.5019 0,2.03419 -2.15714,2.44059 -12.95446,2.44059 -7.12495,0 -13.43865,-0.67585 -14.03043,-1.5019 z m 70.51588,0.28952 c -3.3475,-0.29422 -6.8973,-1.11555 -7.88847,-1.8252 -2.80877,-2.01099 -46.02746,-4.35515 -54.78921,-2.97173 -4.30673,0.68 -8.90123,0.7194 -10.20998,0.0876 -2.88035,-1.39058 5.19262,-2.6306 25.93991,-3.9844 13.04925,-0.85149 54.56132,2.66714 57.28291,4.8554 2.09074,1.68102 -4.98441,4.30866 -10.33516,3.83839 z M 50.74104,168.02529 c -13.38502,-1.61309 -11.67061,-3.11657 3.55382,-3.11657 11.47746,0 14.21786,0.43423 14.21786,2.25285 0,2.4258 -3.42769,2.59239 -17.77168,0.86372 z m 55.20233,-3.42041 c -4.78764,-0.79883 -22.16121,-1.56416 -38.60793,-1.70073 -19.89719,-0.1652 -28.92665,-0.72537 -26.98489,-1.67408 3.41201,-1.66702 63.13886,-1.83143 70.8157,-0.19493 10.28537,2.19259 10.64228,2.37281 7.78554,3.93137 -1.40946,0.76896 -2.95438,1.32897 -3.43314,1.24446 -0.47876,-0.0846 -4.78764,-0.80724 -9.57528,-1.60609 z m 9.57528,-9.25027 c 0,-1.4031 -1.45092,-1.8053 -4.62455,-1.28193 -3.10686,0.51236 -5.32967,-0.0692 -6.7731,-1.77219 -3.05586,-3.60529 -38.32587,-6.5923 -53.04447,-4.49234 -5.84072,0.8333 -10.95731,1.04354 -11.37024,0.46717 -1.28009,-1.78683 6.26509,-2.84824 27.06546,-3.8074 15.34453,-0.70759 23.27428,-0.3357 33.94874,1.59215 7.66022,1.38346 15.34075,2.51243 17.06782,2.50881 4.04254,-0.009 5.70159,3.7206 2.93482,6.59659 -2.68479,2.79076 -5.20448,2.88234 -5.20448,0.18914 z m -71.13001,-0.79447 c -1.38679,-0.75806 -1.66415,-1.66329 -0.67175,-2.19241 2.44576,-1.30399 24.79583,0.71942 24.79583,2.24484 0,1.67461 -21.04832,1.62886 -24.12408,-0.0524 z m 1.92683,-38.77228 c -6.40548,-1.06434 -4.45026,-3.44577 2.82906,-3.44577 8.98381,0 17.62722,1.56496 17.62722,3.19155 0,1.31578 -13.08861,1.47844 -20.45628,0.25422 z m 57.01646,-5.2833 c -4.30888,-0.82962 -20.53303,-1.60039 -36.05366,-1.71282 -15.52065,-0.11243 -26.88041,-0.6638 -25.24393,-1.22528 1.63647,-0.56147 5.12985,-1.06837 7.76305,-1.12642 2.6332,-0.0581 4.78764,-0.78142 4.78764,-1.60747 0,-0.82605 -2.15444,-1.51225 -4.78764,-1.5249 -2.6332,-0.0126 -5.96279,-0.67816 -7.39908,-1.47891 -1.8105,-1.00936 1.52682,-1.46296 10.881,-1.4789 10.55759,-0.018 13.49244,0.44462 13.49244,2.12679 0,1.66228 3.65195,2.30054 16.10389,2.81451 8.85714,0.36559 19.23761,1.12396 23.06773,1.68526 5.69121,0.83404 7.3214,0.51608 8.92047,-1.73986 1.77498,-2.50416 1.40116,-2.70446 -4.027,-2.15777 -4.87039,0.49052 -6.15527,0.0363 -6.9063,-2.44127 -0.77767,-2.565502 -3.15459,-3.290056 -15.12359,-4.610135 C 60.74196,92.93205 57.24191,92.83626 49.1981,94.943361 44.799,96.095719 40.22803,96.520478 39.04041,95.887271 35.42966,93.962132 43.45934,92.7434 66.04093,91.789166 83.059,91.07003 89.7031,91.430734 100.86015,93.679475 c 7.58341,1.528465 15.35488,2.804586 17.26994,2.835826 4.54344,0.07412 5.83372,6.672179 1.80212,9.215369 -1.87987,1.18585 -2.22994,2.16445 -1.00742,2.81626 2.85051,1.5198 0.3559,3.81611 -3.94413,3.6306 -2.09793,-0.0905 -7.33986,-0.84334 -11.64873,-1.67297 z"
         style="fill:#000000" />
    </g>
  </g>
</svg>
